<svg width="15" height="18" viewBox="0 0 15 18" fill="none" xmlns="http://www.w3.org/2000/svg">
<path d="M9.77941 5.04311C9.88366 5.04311 9.96839 4.97302 9.97489 4.85832C10.1638 3.36095 10.2355 3.32272 11.7926 3.06785C11.923 3.0551 11.9946 2.99138 11.9946 2.88306C11.9946 2.78111 11.923 2.71739 11.8187 2.69828C10.2485 2.40518 10.1638 2.41154 9.97489 0.914168C9.96839 0.799475 9.88366 0.729385 9.77941 0.729385C9.68173 0.729385 9.6035 0.799475 9.597 0.907796C9.38851 2.43066 9.34292 2.47526 7.74667 2.69828C7.64243 2.71102 7.57076 2.78111 7.57076 2.88306C7.57076 2.98501 7.64243 3.0551 7.74667 3.06785C9.34292 3.37369 9.382 3.36732 9.597 4.87107C9.6035 4.97302 9.68173 5.04311 9.77941 5.04311ZM5.42071 3.32272C5.49238 3.32272 5.55102 3.28448 5.57055 3.20165C5.74646 2.24588 5.74646 2.23951 6.7303 2.06109C6.81498 2.04198 6.86713 1.99101 6.86713 1.91454C6.86713 1.83171 6.81498 1.78074 6.7303 1.76162C5.74646 1.57047 5.77253 1.56409 5.57055 0.627436C5.55102 0.544603 5.49889 0.5 5.42071 0.5C5.34253 0.5 5.28389 0.550975 5.27086 0.627436C5.06237 1.56409 5.09495 1.57047 4.10463 1.76162C4.01993 1.78074 3.96781 1.83808 3.96781 1.91454C3.96781 1.98463 4.01993 2.04198 4.10463 2.06109C5.09495 2.25225 5.08192 2.24588 5.27086 3.20165C5.28389 3.27812 5.34253 3.32272 5.42071 3.32272ZM1.86988 17.5C1.96761 17.5 2.01974 17.4427 2.03277 17.3535C2.26731 16.1046 2.2608 16.0791 3.59643 15.8306C3.69416 15.8051 3.74629 15.7605 3.74629 15.6649C3.74629 15.5693 3.69416 15.5247 3.59643 15.5057C2.26731 15.2444 2.29989 15.2189 2.03277 13.9764C2.01974 13.8872 1.96761 13.8298 1.86988 13.8298C1.77867 13.8298 1.73307 13.8872 1.707 13.9764C1.43987 15.2189 1.492 15.2444 0.149851 15.5057C0.0586377 15.5247 0 15.5693 0 15.6649C0 15.7605 0.0586377 15.8051 0.149851 15.8306C1.492 16.0855 1.46594 16.1046 1.707 17.3535C1.73307 17.4427 1.77867 17.5 1.86988 17.5ZM11.8904 15.6777C13.5127 14.0975 13.7733 12.1222 12.6592 9.83473L11.1932 6.80812C11.089 6.59781 10.9652 6.42577 10.8284 6.29196C10.3398 5.8141 9.62958 5.83958 9.1605 6.30474C8.84121 6.61059 8.74353 7.07575 8.95202 7.58544L9.38851 8.59857C9.39501 8.62407 9.40157 8.64957 9.382 8.66865C9.35593 8.69415 9.32985 8.68779 9.30383 8.66229L5.60963 5.04948C5.06889 4.52062 4.39782 4.52062 3.88311 5.02399C3.69416 5.20878 3.58992 5.43816 3.5834 5.68029C3.04915 5.27886 2.45626 5.29161 1.99368 5.74401C1.55064 6.17729 1.5376 6.77626 1.92201 7.28601C1.68746 7.28601 1.46594 7.38795 1.29654 7.55363C0.814408 8.01873 0.833956 8.65593 1.34215 9.15931L1.85685 9.65628C1.60276 9.64992 1.34866 9.76465 1.14669 9.96213C0.671073 10.4273 0.697137 11.0963 1.21184 11.5997L5.17313 15.4738C7.32969 17.5829 9.94231 17.5829 11.8904 15.6777ZM11.2323 15.0787C9.597 16.6717 7.55775 16.6207 5.70737 14.8047L1.88292 11.0708C1.68746 10.8797 1.67443 10.6248 1.86988 10.4337C2.05883 10.2489 2.33247 10.2489 2.52793 10.44L4.87994 12.7466C5.05586 12.9123 5.30344 12.8868 5.45329 12.7403C5.60963 12.5874 5.63571 12.3388 5.46632 12.1732L1.94807 8.72602C1.75261 8.53484 1.73958 8.27999 1.92852 8.09524C2.11746 7.91042 2.39111 7.91042 2.59308 8.1016L5.87678 11.313C6.04618 11.4786 6.30026 11.4595 6.45015 11.3066C6.60649 11.1537 6.63256 10.9052 6.46316 10.7395L2.60611 6.96738C2.41066 6.77626 2.39762 6.50864 2.59308 6.32382C2.77551 6.13906 3.04915 6.15179 3.25113 6.34296L7.10819 10.1151C7.26453 10.268 7.51861 10.2616 7.67501 10.1087C7.83791 9.9494 7.85092 9.70092 7.68802 9.54161L4.40433 6.32382C4.20887 6.1327 4.20235 5.87145 4.3913 5.68666C4.58676 5.49551 4.84737 5.50188 5.04934 5.6994L9.58399 10.1342C9.81199 10.3572 10.0791 10.3572 10.2746 10.166C10.4375 10.0068 10.5091 9.79651 10.3789 9.47152L9.56442 7.37518C9.45367 7.09483 9.55141 6.85907 9.77941 6.75712C10.0205 6.64881 10.2355 6.75712 10.3854 7.06297L11.8969 10.1915C12.9067 12.2815 12.5158 13.8171 11.2323 15.0787ZM5.55102 4.45053C5.35556 4.62894 5.25783 4.86469 5.2448 5.10683L6.06575 5.75038C5.87027 5.5656 5.86377 5.29798 6.05919 5.10683C6.24816 4.92204 6.51531 4.93479 6.71073 5.12594L8.92594 7.29237L9.45367 6.60422L7.27104 4.47602C6.7303 3.94715 6.06575 3.94715 5.55102 4.45053ZM13.5518 15.1106C15.1741 13.524 15.4347 11.5487 14.3271 9.26126L12.8547 6.22829C12.5875 5.66755 12.1379 5.37444 11.6037 5.37444C11.1802 5.37444 10.457 5.66118 10.457 6.49586C10.457 6.56594 10.457 6.63609 10.47 6.71253L11.2388 6.92279C11.1997 6.83998 11.1737 6.75712 11.1737 6.64881C11.1737 6.44491 11.3496 6.24101 11.6298 6.24101C11.8057 6.24101 11.9881 6.36205 12.0859 6.56595L13.5648 9.61806C14.5747 11.7017 14.1903 13.25 12.8937 14.4989C12.3725 15.0086 11.8057 15.3527 11.2193 15.5184L10.2681 16.4996C11.4408 16.5315 12.581 16.06 13.5518 15.1106Z" fill="#7153FF"/>
</svg>
