<svg width="20" height="17" viewBox="0 0 20 17" fill="none" xmlns="http://www.w3.org/2000/svg">
<path d="M2.86816 16.1602C1.99935 16.1602 1.34635 15.9443 0.90918 15.5127C0.477539 15.0866 0.261719 14.4447 0.261719 13.5869V3.45166C0.261719 2.59391 0.477539 1.95199 0.90918 1.52588C1.34635 1.09424 1.99935 0.878418 2.86816 0.878418H17.2285C18.1029 0.878418 18.7559 1.09424 19.1875 1.52588C19.6191 1.95199 19.835 2.59391 19.835 3.45166V13.5869C19.835 14.4447 19.6191 15.0866 19.1875 15.5127C18.7559 15.9443 18.1029 16.1602 17.2285 16.1602H2.86816ZM2.88477 14.8237H17.2119C17.6214 14.8237 17.9368 14.7158 18.1582 14.5C18.3851 14.2786 18.4985 13.9521 18.4985 13.5205V3.51807C18.4985 3.08643 18.3851 2.7627 18.1582 2.54688C17.9368 2.32552 17.6214 2.21484 17.2119 2.21484H2.88477C2.46973 2.21484 2.15153 2.32552 1.93018 2.54688C1.70882 2.7627 1.59814 3.08643 1.59814 3.51807V13.5205C1.59814 13.9521 1.70882 14.2786 1.93018 14.5C2.15153 14.7158 2.46973 14.8237 2.88477 14.8237ZM6.58691 15.0811V1.96582H7.89014V15.0811H6.58691ZM4.99316 5.29443H3.2085C3.08675 5.29443 2.97884 5.2474 2.88477 5.15332C2.79069 5.05371 2.74365 4.9458 2.74365 4.82959C2.74365 4.70231 2.79069 4.5944 2.88477 4.50586C2.97884 4.41178 3.08675 4.36475 3.2085 4.36475H4.99316C5.11491 4.36475 5.22282 4.41178 5.31689 4.50586C5.4165 4.5944 5.46631 4.70231 5.46631 4.82959C5.46631 4.9458 5.4165 5.05371 5.31689 5.15332C5.22282 5.2474 5.11491 5.29443 4.99316 5.29443ZM4.99316 7.44434H3.2085C3.08675 7.44434 2.97884 7.3973 2.88477 7.30322C2.79069 7.20915 2.74365 7.09847 2.74365 6.97119C2.74365 6.84945 2.79069 6.7443 2.88477 6.65576C2.97884 6.56169 3.08675 6.51465 3.2085 6.51465H4.99316C5.11491 6.51465 5.22282 6.56169 5.31689 6.65576C5.4165 6.7443 5.46631 6.84945 5.46631 6.97119C5.46631 7.09847 5.4165 7.20915 5.31689 7.30322C5.22282 7.3973 5.11491 7.44434 4.99316 7.44434ZM4.99316 9.58594H3.2085C3.08675 9.58594 2.97884 9.54167 2.88477 9.45312C2.79069 9.35905 2.74365 9.25114 2.74365 9.12939C2.74365 9.00212 2.79069 8.89421 2.88477 8.80566C2.97884 8.71159 3.08675 8.66455 3.2085 8.66455H4.99316C5.11491 8.66455 5.22282 8.71159 5.31689 8.80566C5.4165 8.89421 5.46631 9.00212 5.46631 9.12939C5.46631 9.25114 5.4165 9.35905 5.31689 9.45312C5.22282 9.54167 5.11491 9.58594 4.99316 9.58594Z" fill="white" fill-opacity="0.5"/>
</svg>
