<svg width="90" height="90" viewBox="0 0 90 90" fill="none" xmlns="http://www.w3.org/2000/svg">
<g id="Group 4914">
<path id="Vector" d="M36.6189 70.9654C39.1924 70.9654 42.0442 70.5861 45.0001 69.5518C47.9561 70.5861 50.8076 70.9654 53.3811 70.9654C60.6145 70.9654 65.97 67.7242 67.952 66.0346C70.908 67.4826 73.6554 68.1379 76.2288 68.1379C84.3664 68.1379 90 62.3794 90 54.0688C90 49.8622 88.2613 45.4137 84.262 41.4483C87.4266 38.1724 88.7133 34.2759 88.7133 30.4483C88.7133 22.2069 82.3147 14.5862 74.351 13.6552C73.9684 5.68966 65.0311 0 56.4759 0C52.1291 0 48.0256 1.34483 45.0001 4.44827C41.9744 1.34483 37.9056 0 33.5241 0C24.9691 0 16.0317 5.68966 15.684 13.6552C7.68547 14.5862 1.25193 22.2069 1.25193 30.4483C1.25193 34.2759 2.57342 38.1724 5.73802 41.4483C1.7388 45.4137 0 49.8622 0 54.0688C0 62.3794 5.63371 68.1379 13.7712 68.1379C16.3447 68.1379 19.092 67.4826 22.0479 66.0346C23.9954 67.7242 29.3856 70.9654 36.6189 70.9654ZM36.6189 65.9999C28.5163 65.9999 24.4822 61.6552 22.8826 59.862C19.2659 62.4138 17.1445 63.138 13.7712 63.138C8.48534 63.138 5.04251 59.5516 5.04251 54.0688C5.04251 50.4139 6.36399 47.5517 11.1979 43.1723C12.2759 42.2413 12.1368 40.6897 11.2674 39.7931C7.19861 35.8966 6.25968 33.2069 6.25968 29.793C6.25968 23.1379 11.4413 18.0345 19.3702 18.5517C20.5526 18.6207 20.9351 17.8276 20.796 17.0345C19.7875 10.3448 25.4907 4.9655 33.8368 4.9655C38.6707 4.9655 41.9397 6.79311 45.0001 10.0345C48.0603 6.79311 51.3293 4.9655 56.1632 4.9655C64.5094 4.9655 70.2127 10.3448 69.204 17.0345C69.0649 17.8276 69.4474 18.6207 70.6299 18.5517C78.5239 18.0345 83.7055 23.1379 83.7055 29.793C83.7055 33.2069 82.8013 35.8966 78.7325 39.7931C77.8633 40.6897 77.7242 42.2413 78.8023 43.1723C83.6361 47.5517 84.9576 50.4139 84.9576 54.0688C84.9576 59.5516 81.4799 63.138 76.2288 63.138C72.8556 63.138 70.7341 62.4138 67.0828 59.862C65.5178 61.6552 61.484 65.9999 53.3811 65.9999C50.7382 65.9999 48.3386 65.5861 45.0001 64.2414C41.6617 65.5861 39.2621 65.9999 36.6189 65.9999ZM26.4645 54.2068C32.9676 54.2068 36.6539 51.2413 38.2534 46.9311C40.1663 48.207 42.357 48.862 45.0001 48.862C47.643 48.862 49.834 48.207 51.7466 46.9311C53.3464 51.2413 57.0327 54.2068 63.5357 54.2068C64.718 54.2068 65.7264 53.2758 65.7264 52.0691C65.7264 50.8965 64.718 49.8966 63.5357 49.8966C57.6932 49.8274 55.1545 46.5863 54.9806 41.7587C54.9459 40.0344 52.5463 39.3447 51.5032 40.8274C50.0426 42.9655 47.9561 44.2069 45.0001 44.2069C42.0442 44.2069 39.9574 42.9655 38.4971 40.8274C37.4537 39.3447 35.0541 40.0344 35.0194 41.7587C34.8455 46.5863 32.3068 49.8274 26.4645 49.8966C25.2821 49.8966 24.2736 50.8965 24.2736 52.0691C24.2736 53.2758 25.2821 54.2068 26.4645 54.2068ZM45.0001 90C48.3386 90 50.5293 88.9654 50.5293 87.3102C50.5293 85.1378 49.9034 78.9655 49.9034 74.0689C49.9034 66.4483 57.9018 51.8966 59.1539 49.9999L54.5634 46.862C52.79 50.069 50.6685 53.7242 47.8517 59.9309V48.0346H42.1483V59.9653C39.3315 53.7587 37.1753 50.0343 35.4366 46.862L30.8809 49.9999C32.0634 51.8966 40.0966 66.4483 40.0966 74.0689C40.0966 78.9655 39.4707 85.1378 39.4707 87.3102C39.4707 88.9654 41.6617 90 45.0001 90Z" fill="#7153FF"/>
</g>
</svg>
