<svg width="90" height="90" viewBox="0 0 90 90" fill="none" xmlns="http://www.w3.org/2000/svg">
<g id="Group">
<path id="Vector" d="M4.70562 59.0042C5.89011 58.6307 6.46196 57.3857 6.1352 55.9751C5.11408 51.7842 4.50141 47.3444 4.70562 41.5353C4.74647 40 3.92956 39.1701 2.70423 39.0872C1.11129 38.9626 0.25355 39.9586 0.131016 41.2446C-0.236586 45.9337 0.131016 51.5353 1.72396 57.3029C2.1324 58.7135 3.43943 59.4188 4.70562 59.0042ZM2.90846 34.2738C4.09296 34.7302 5.6042 34.1908 6.17601 32.6141C12.752 13.9419 28.4772 4.6473 44.4474 4.6473C51.718 4.6473 57.4361 6.14109 62.2965 8.96265C63.6855 9.7925 65.2375 9.7925 65.8503 8.42324C66.5038 6.97095 65.7684 6.05809 64.7475 5.39419C58.5389 1.45228 52.2488 0 44.4474 0C25.9857 0 9.23938 9.99999 1.72396 30.3319C0.947911 32.4066 1.72396 33.8589 2.90846 34.2738ZM87.8655 49.3361C89.1726 49.3361 90.1119 48.2572 89.9892 46.8051C88.1513 29.917 82.6782 19.2531 73.2432 10.8713C72.0585 9.7925 70.6291 10.1245 69.9345 10.9543C69.1586 11.8257 69.0767 13.195 70.3022 14.3153C78.3486 21.9502 84.1895 31.8257 85.5781 46.888C85.7415 48.2572 86.5585 49.3361 87.8655 49.3361ZM9.44359 71.0373C10.2197 72.1161 11.7717 72.4065 12.9154 71.4108C15.8562 68.8795 17.3266 64.8132 17.3266 60.5809C17.3266 54.8548 14.876 51.9502 14.876 44.8131C14.876 28.5477 28.1913 15.0207 44.2024 15.0207C63.522 15.0207 75.9796 31.0788 76.0204 54.7719C76.0204 64.0247 74.5091 70.5809 72.9978 74.3568C72.467 75.6431 72.957 77.0124 74.019 77.5934C75.1626 78.0912 76.7558 77.6763 77.2458 76.307C78.8387 71.9087 80.595 64.6886 80.595 54.7301C80.595 28.2987 66.2584 10.3734 44.2024 10.3734C25.659 10.3734 10.3013 26.0166 10.3013 44.8131C10.3013 51.6181 12.8337 56.224 12.8746 60.5395C12.8746 63.3608 11.8534 66.0578 9.93374 67.7592C8.95347 68.5892 8.79007 70.083 9.44359 71.0373ZM19.083 78.7551C22.1055 77.1784 26.2308 71.784 27.3744 67.5103C27.7012 66.3485 27.1702 64.9375 25.904 64.5229C24.7604 64.1079 23.535 64.8133 23.0857 66.1411C21.9829 69.7923 20.0632 72.5311 17.0407 74.6057C15.5703 75.6431 15.3661 76.9295 15.8154 77.8838C16.3055 78.9212 17.6125 79.5019 19.083 78.7551ZM27.8237 56.2654C26.8026 53.4441 25.128 49.8753 25.128 45.0623C25.128 34.0249 33.5828 25.4356 44.4474 25.4356C48.6135 25.4356 49.9205 25.8921 53.5558 27.6763C54.8221 28.2572 55.9656 27.8838 56.4149 26.9709C57.0276 25.8091 56.7011 24.3983 55.3121 23.5684C52.6165 21.9502 48.4912 20.7469 44.4474 20.7469C31.0504 20.7469 20.5125 31.4522 20.5125 45.0623C20.5125 50.2903 21.9012 54.5226 23.3308 58.0496C23.9026 59.4188 25.128 60.0831 26.5984 59.4606C27.8237 58.9624 28.273 57.6346 27.8237 56.2654ZM59.9686 33.2365C63.9305 39.0872 65.8911 47.1783 65.8911 56.9707C65.8911 67.4274 63.032 77.3027 58.5797 82.946C57.8446 83.9417 57.7627 85.3527 58.6616 86.2655C59.6417 87.1783 61.3164 87.1369 62.1334 86.0166C67.1162 79.1701 70.3838 68.2988 70.3838 56.805C70.3838 44.2324 67.7289 36.7634 64.0121 30.7468C63.1543 29.419 61.7249 29.0041 60.581 29.6265C59.3967 30.2904 59.029 31.8257 59.9686 33.2365ZM27.6603 84.2324C34.3589 78.7551 38.0349 70.0412 37.9941 60.3734C37.9534 53.0705 35.3801 48.5475 35.3801 44.5641C35.3801 39.3361 39.015 35.8506 44.3251 35.8506C52.4938 35.8506 55.1487 45.3112 55.394 56.5143C55.7614 69.4605 51.146 80.4147 45.1009 85.8091C44.1208 86.6391 43.9166 87.9251 44.5701 88.9626C45.3459 90.0829 46.9391 90.2904 48.0011 89.2947C54.3728 83.4024 59.7644 70.4562 59.6825 56.1826C59.6417 42.2407 55.7614 31.2033 44.3251 31.2033C36.7279 31.2033 30.8871 36.3484 30.8871 44.1495C30.8871 48.8382 33.3377 54.6058 33.3786 60.3734C33.4194 68.5892 30.3969 75.9749 24.8012 80.5808C23.6984 81.4936 23.535 82.8214 24.2294 83.8588C25.0871 85.062 26.5575 85.1867 27.6603 84.2324ZM37.2179 87.5519C40.4447 85.1867 44.4474 79.7508 45.9994 74.4396C46.2856 73.5268 46.0814 71.9915 44.7743 71.5351C43.3854 71.0373 42.201 71.7426 41.8333 72.8215C39.7505 78.3816 37.1772 81.6597 34.4406 83.8174C33.4194 84.647 33.1335 86.0166 33.8279 87.0955C34.4814 88.2572 36.0744 88.4233 37.2179 87.5519ZM48.3277 64.7718C49.4713 59.1699 49.022 51.9917 47.0207 45.7677C46.4898 44.2324 45.3051 43.5685 44.0389 43.9834C42.8546 44.3984 42.1195 45.5187 42.5688 46.9708C44.4474 52.9873 44.7743 58.921 43.835 64.1494C43.5896 65.3943 44.08 66.5975 45.5094 66.8049C46.8164 67.0539 48.0419 66.2653 48.3277 64.7718Z" fill="#7153FF"/>
</g>
</svg>
