<svg width="8" height="14" viewBox="0 0 8 14" fill="none" xmlns="http://www.w3.org/2000/svg">
<path d="M0.23584 6.85938C0.23584 6.76042 0.254069 6.66927 0.290527 6.58594C0.326986 6.4974 0.381673 6.41667 0.45459 6.34375L6.6499 0.28125C6.79053 0.145833 6.9598 0.078125 7.15771 0.078125C7.29313 0.078125 7.41292 0.109375 7.51709 0.171875C7.62646 0.234375 7.7124 0.320312 7.7749 0.429688C7.84261 0.533854 7.87646 0.653646 7.87646 0.789062C7.87646 0.981771 7.80615 1.15104 7.66553 1.29688L1.97803 6.85938L7.66553 12.4219C7.80615 12.5677 7.87646 12.737 7.87646 12.9297C7.87646 13.0651 7.84261 13.1849 7.7749 13.2891C7.7124 13.3984 7.62646 13.4844 7.51709 13.5469C7.41292 13.6094 7.29313 13.6406 7.15771 13.6406C6.9598 13.6406 6.79053 13.5703 6.6499 13.4297L0.45459 7.375C0.381673 7.30208 0.326986 7.22396 0.290527 7.14062C0.254069 7.05208 0.23584 6.95833 0.23584 6.85938Z" fill="white" fill-opacity="0.5"/>
</svg>
