<svg width="187" height="232" viewBox="0 0 187 232" fill="none" xmlns="http://www.w3.org/2000/svg">
<g id="Group 4915">
<g id="Group">
<path id="Vector" d="M121.764 58.1836C123.057 58.1836 124.108 57.286 124.188 55.8171C126.531 36.6402 127.42 36.1506 146.728 32.8864C148.344 32.7232 149.233 31.9071 149.233 30.5199C149.233 29.2142 148.344 28.3981 147.052 28.1534C127.582 24.3996 126.531 24.4812 124.188 5.30426C124.108 3.83538 123.057 2.93774 121.764 2.93774C120.553 2.93774 119.583 3.83538 119.503 5.22265C116.917 24.726 116.352 25.2972 96.5585 28.1534C95.2659 28.3166 94.3773 29.2142 94.3773 30.5199C94.3773 31.8255 95.2659 32.7232 96.5585 32.8864C116.352 36.8034 116.837 36.7218 119.503 55.9803C119.583 57.286 120.553 58.1836 121.764 58.1836ZM67.7167 36.1506C68.6054 36.1506 69.3325 35.6609 69.5746 34.6001C71.7559 22.3595 71.7559 22.2779 83.9556 19.9929C85.0055 19.7482 85.6522 19.0953 85.6522 18.1161C85.6522 17.0552 85.0055 16.4024 83.9556 16.1576C71.7559 13.7095 72.0792 13.6279 69.5746 1.63208C69.3325 0.571227 68.6861 0 67.7167 0C66.7473 0 66.0202 0.652832 65.8586 1.63208C63.2733 13.6279 63.6772 13.7095 51.3972 16.1576C50.347 16.4024 49.7007 17.1368 49.7007 18.1161C49.7007 19.0137 50.347 19.7482 51.3972 19.9929C63.6772 22.4411 63.5156 22.3595 65.8586 34.6001C66.0202 35.5794 66.7473 36.1506 67.7167 36.1506ZM23.6865 217.719C24.8984 217.719 25.5447 216.985 25.7063 215.843C28.6146 199.848 28.5339 199.521 45.0957 196.339C46.3075 196.012 46.9538 195.441 46.9538 194.217C46.9538 192.993 46.3075 192.422 45.0957 192.178C28.6146 188.832 29.0186 188.505 25.7063 172.593C25.5447 171.45 24.8984 170.715 23.6865 170.715C22.5555 170.715 21.99 171.45 21.6668 172.593C18.3544 188.505 19.0007 188.832 2.35815 192.178C1.22711 192.422 0.5 192.993 0.5 194.217C0.5 195.441 1.22711 196.012 2.35815 196.339C19.0007 199.604 18.6776 199.848 21.6668 215.843C21.99 216.985 22.5555 217.719 23.6865 217.719ZM147.94 194.381C168.057 174.143 171.288 148.846 157.473 119.55L139.296 80.7882C138.003 78.0947 136.469 75.8914 134.772 74.1777C128.713 68.0577 119.907 68.3841 114.09 74.3413C110.131 78.2583 108.92 84.2156 111.505 90.7433L116.917 103.718C116.998 104.045 117.079 104.372 116.837 104.616C116.513 104.943 116.19 104.861 115.867 104.535L70.0593 58.2652C63.3541 51.4921 55.0328 51.4921 48.6505 57.9388C46.3075 60.3053 45.0149 63.2431 44.9341 66.344C38.3094 61.2029 30.9576 61.3662 25.2215 67.16C19.7278 72.7091 19.5662 80.3801 24.3328 86.9084C21.4245 86.9084 18.6776 88.2141 16.5771 90.3359C10.5986 96.2925 10.841 104.453 17.1426 110.9L23.5249 117.265C20.3742 117.183 17.2234 118.652 14.7189 121.182C8.82129 127.139 9.14448 135.708 15.5268 142.154L64.6467 191.77C91.388 218.78 123.784 218.78 147.94 194.381ZM139.781 186.71C119.503 207.111 94.2159 206.458 71.2713 183.201L23.8481 135.381C21.4245 132.933 21.2629 129.669 23.6865 127.22C26.0294 124.854 29.4226 124.854 31.8463 127.302L61.0112 156.843C63.1925 158.964 66.2625 158.638 68.1206 156.761C70.0593 154.803 70.3826 151.62 68.2822 149.499L24.656 105.351C22.2323 102.902 22.0708 99.6385 24.4136 97.2723C26.7565 94.9054 30.1497 94.9054 32.6541 97.3537L73.3719 138.482C75.4725 140.604 78.623 140.358 80.4817 138.4C82.4203 136.442 82.7436 133.259 80.643 131.137L32.8157 82.8278C30.3921 80.3801 30.2305 76.9527 32.6541 74.5858C34.9163 72.2196 38.3094 72.3825 40.8139 74.8309L88.6414 123.14C90.58 125.099 93.7306 125.017 95.6699 123.059C97.6898 121.019 97.8512 117.836 95.8312 115.796L55.1136 74.5858C52.6899 72.1381 52.6091 68.7922 54.952 66.4256C57.3757 63.9775 60.6072 64.0591 63.1117 66.5888L119.341 123.386C122.168 126.241 125.481 126.241 127.905 123.793C129.924 121.753 130.813 119.06 129.198 114.898L119.099 88.0505C117.725 84.4601 118.937 81.4407 121.764 80.135C124.754 78.7479 127.42 80.135 129.278 84.052L148.021 124.119C160.543 150.886 155.696 170.552 139.781 186.71ZM69.3325 50.5944C66.9088 52.8794 65.697 55.8987 65.5354 58.9997L75.7151 67.2417C73.2912 64.8752 73.2106 61.4478 75.6338 58.9997C77.9771 56.6331 81.2897 56.7964 83.7129 59.2445L111.181 86.9899L117.725 78.1768L90.6607 50.9209C83.9556 44.1477 75.7151 44.1477 69.3325 50.5944ZM168.542 187.118C188.659 166.798 191.89 141.501 178.155 112.206L159.897 73.3623C156.585 66.1808 151.01 62.427 144.386 62.427C139.135 62.427 130.167 66.0992 130.167 76.789C130.167 77.6866 130.167 78.5849 130.328 79.564L139.861 82.2568C139.377 81.1962 139.054 80.135 139.054 78.7479C139.054 76.1365 141.235 73.5252 144.709 73.5252C146.89 73.5252 149.152 75.0753 150.364 77.6866L168.703 116.775C181.225 143.46 176.459 163.289 160.382 179.284C153.919 185.812 146.89 190.219 139.619 192.341L127.824 204.908C142.366 205.316 156.504 199.277 168.542 187.118Z" fill="#7153FF"/>
</g>
</g>
</svg>
