<svg width="130" height="130" viewBox="0 0 130 130" fill="none" xmlns="http://www.w3.org/2000/svg">
<g id="Frame 48095757">
<rect width="130" height="130" rx="10" fill="#D9D9D9"/>
<g id="Group 4899">
<path id="Vector" d="M82 84V79.6667C82 77.3681 81.1045 75.1637 79.5104 73.5384C77.9163 71.9131 75.7543 71 73.5 71H56.5C54.2457 71 52.0837 71.9131 50.4896 73.5384C48.8955 75.1637 48 77.3681 48 79.6667V84" stroke="black" strokeWidth="3" strokeLinecap="round" strokeLinejoin="round"/>
<path id="Vector_2" d="M65.5 63C70.1944 63 74 59.1944 74 54.5C74 49.8056 70.1944 46 65.5 46C60.8056 46 57 49.8056 57 54.5C57 59.1944 60.8056 63 65.5 63Z" stroke="black" strokeWidth="3" strokeLinecap="round" strokeLinejoin="round"/>
</g>
</g>
</svg>
