<svg width="72" height="80" viewBox="0 0 72 80" fill="none" xmlns="http://www.w3.org/2000/svg">
<path d="M70 54.9738V24.6986C69.9986 23.3713 69.6489 22.0677 68.9858 20.9186C68.3227 19.7695 67.3697 18.8153 66.2222 18.1516L39.7778 3.01403C38.6292 2.34973 37.3263 2 36 2C34.6737 2 33.3708 2.34973 32.2222 3.01403L5.77778 18.1516C4.63032 18.8153 3.67726 19.7695 3.01419 20.9186C2.35112 22.0677 2.00136 23.3713 2 24.6986V54.9738C2.00136 56.3011 2.35112 57.6047 3.01419 58.7538C3.67726 59.9029 4.63032 60.8572 5.77778 61.5208L32.2222 76.6584C33.3708 77.3227 34.6737 77.6724 36 77.6724C37.3263 77.6724 38.6292 77.3227 39.7778 76.6584L66.2222 61.5208C67.3697 60.8572 68.3227 59.9029 68.9858 58.7538C69.6489 57.6047 69.9986 56.3011 70 54.9738Z" stroke="#7153FF" stroke-width="4" stroke-linecap="round" stroke-linejoin="round"/>
<path d="M2.98535 20.6724L35.9998 39.6724L69.0143 20.6724" stroke="#7153FF" stroke-width="4" stroke-linecap="round" stroke-linejoin="round"/>
<path d="M36.1641 78V40" stroke="#7153FF" stroke-width="4" stroke-linecap="round" stroke-linejoin="round"/>
</svg>
