<svg width="18" height="14" viewBox="0 0 18 14" fill="none" xmlns="http://www.w3.org/2000/svg">
<path d="M17.172 9.49448L12.888 5.58455C12.5712 5.29729 12.1968 5.15715 11.8008 5.15715C11.412 5.15715 11.052 5.29028 10.7208 5.57756L7.02001 8.79376H7.33679L5.5584 7.23119C5.2632 6.96493 4.93199 6.83183 4.59359 6.83183C4.2624 6.83183 3.95279 6.96493 3.66479 7.2242L0.914398 9.64163C0.914398 10.5806 1.2888 11.057 2.0304 11.057H15.7392C16.6536 11.057 17.172 10.4965 17.172 9.49448ZM5.86799 5.66868C6.78961 5.66868 7.55281 4.92592 7.55281 4.00099C7.55281 3.1041 6.78961 2.35435 5.86799 2.35435C4.93199 2.35435 4.1616 3.1041 4.1616 4.00099C4.1616 4.92592 4.93199 5.66868 5.86799 5.66868ZM1.8504 11.6246H16.1496C17.3664 11.6246 18 11.015 18 9.82382V1.79379C18 0.609605 17.3664 0 16.1496 0H1.8504C0.633599 0 0 0.609605 0 1.79379V9.82382C0 11.015 0.633599 11.6246 1.8504 11.6246ZM1.872 10.4965C1.3968 10.4965 1.1592 10.2653 1.1592 9.80977V1.81481C1.1592 1.35235 1.3968 1.12812 1.872 1.12812H16.128C16.6032 1.12812 16.8408 1.35235 16.8408 1.81481V9.80977C16.8408 10.2653 16.6032 10.4965 16.128 10.4965H1.872ZM5.3784 14H12.6216C12.9384 14 13.2048 13.7477 13.2048 13.4324C13.2048 13.1171 12.9384 12.8648 12.6216 12.8648H5.3784C5.06159 12.8648 4.7952 13.1171 4.7952 13.4324C4.7952 13.7477 5.06159 14 5.3784 14Z" fill="#7153FF"/>
</svg>
