<svg width="26" height="27" viewBox="0 0 26 27" fill="none" xmlns="http://www.w3.org/2000/svg">
<g id="Group 554">
<g id="Group-2">
<path id="Instagram-icon" d="M13.9151 0.925781C16.1437 0.930226 16.6243 0.949098 17.7654 1.00136C19.1049 1.06271 20.0201 1.27233 20.8177 1.58421C21.6459 1.90631 22.3464 2.33577 23.0468 3.03621C23.7421 3.73153 24.1716 4.43708 24.4937 5.26022C24.8005 6.0578 25.0152 6.97297 25.0765 8.31249C25.1333 9.55279 25.1507 10.0129 25.153 12.7854V14.2081C25.1507 16.9806 25.1333 17.4407 25.0765 18.681C25.0152 20.0205 24.8056 20.9357 24.4937 21.7333C24.1716 22.5615 23.7421 23.262 23.0417 23.9624C22.3413 24.6628 21.6408 25.0923 20.8126 25.4144C20.015 25.7212 19.0998 25.9359 17.7603 25.9972C16.4208 26.0586 15.9913 26.0739 12.5761 26.0739L12.2087 26.0739C9.12774 26.0727 8.68172 26.0563 7.39181 25.9972C6.05229 25.9359 5.13712 25.7263 4.33955 25.4144C3.51129 25.0923 2.81086 24.6628 2.11042 23.9624C1.40999 23.262 0.980523 22.5615 0.658424 21.7333C0.351664 20.9357 0.136927 20.0205 0.0755749 18.681C0.0233121 17.5399 0.00444486 17.0592 0 14.8307V12.1628C0.00444486 9.93425 0.0233121 9.45356 0.0755749 8.31249C0.136927 6.97297 0.346552 6.0578 0.658424 5.26022C0.980523 4.43708 1.40999 3.73153 2.11042 3.03621C2.81086 2.33577 3.51129 1.90631 4.33955 1.58421C5.13712 1.27233 6.05229 1.0576 7.39692 1.00136C8.538 0.949098 9.01869 0.930226 11.2472 0.925781H13.9151ZM12.9373 3.18963H12.2148C9.18623 3.19041 8.7692 3.20209 7.49407 3.26117C6.26702 3.3174 5.60237 3.52191 5.15757 3.69574C4.56961 3.92581 4.15038 4.19679 3.71069 4.63648C3.271 5.07617 3.00002 5.4954 2.76995 6.08336C2.59612 6.52816 2.39162 7.19281 2.33538 8.41986C2.27914 9.74404 2.2638 10.1428 2.2638 13.5019C2.2638 16.8609 2.27403 17.2597 2.33538 18.5839C2.39162 19.8109 2.59612 20.4755 2.76995 20.9204C3.00002 21.5083 3.271 21.9275 3.71069 22.3672C4.15038 22.8069 4.56961 23.0779 5.15757 23.308C5.60237 23.4818 6.26702 23.6863 7.49407 23.7425C8.81825 23.7988 9.21704 23.8141 12.5761 23.8141L12.9373 23.8141C15.9659 23.8133 16.3829 23.8016 17.6581 23.7425C18.8851 23.6863 19.5497 23.4818 19.9945 23.308C20.5825 23.0779 21.0017 22.8069 21.4414 22.3672C21.8811 21.9275 22.1521 21.5083 22.3822 20.9204C22.556 20.4755 22.7605 19.8109 22.8167 18.5839C22.873 17.2597 22.8883 16.8609 22.8883 13.5019L22.8883 13.1406C22.8875 10.112 22.8758 9.69499 22.8167 8.41986C22.7605 7.19281 22.556 6.52816 22.3822 6.08336C22.1521 5.4954 21.8811 5.07617 21.4414 4.63648C21.0017 4.19679 20.5825 3.92581 19.9945 3.69574C19.5497 3.52191 18.8851 3.3174 17.6581 3.26117C16.3339 3.19981 15.9351 3.18959 12.5761 3.18959L12.9373 3.18963ZM12.5761 7.04455C16.1447 7.04455 19.0334 9.93832 19.0334 13.5019C19.0334 17.0654 16.1396 19.9592 12.5761 19.9592C9.01253 19.9592 6.11876 17.0705 6.11876 13.5019C6.11876 9.93321 9.00742 7.04455 12.5761 7.04455ZM12.5761 9.30946C10.26 9.30946 8.38367 11.1858 8.38367 13.5019C8.38367 15.8179 10.26 17.6943 12.5761 17.6943C14.8921 17.6943 16.7684 15.8179 16.7684 13.5019C16.7684 11.1858 14.8921 9.30946 12.5761 9.30946ZM19.2941 5.28067C20.1271 5.28067 20.8024 5.95593 20.8024 6.78891C20.8024 7.62189 20.1271 8.29715 19.2941 8.29715C18.4611 8.29715 17.7859 7.62189 17.7859 6.78891C17.7859 5.95593 18.4611 5.28067 19.2941 5.28067Z" fill="#7153FF"/>
</g>
</g>
</svg>
