<svg width="101" height="60" viewBox="0 0 101 60" fill="none" xmlns="http://www.w3.org/2000/svg">
<mask id="mask0_0_3002" style="mask-type:luminance" maskUnits="userSpaceOnUse" x="0" y="0" width="101" height="60">
<path d="M100.312 0H0.9375V60H100.312V0Z" fill="white"/>
</mask>
<g mask="url(#mask0_0_3002)">
<path d="M0.9375 0H100.312V60H0.9375V0Z" fill="#FF0000"/>
<path d="M46.14 25.9276C45.0293 25.2333 43.8512 24.6575 42.6395 24.1833C41.5961 25.7413 40.9903 27.6041 40.9903 29.6193C40.9903 30.6185 41.1417 31.5838 41.4278 32.4983C41.9327 31.3298 42.5722 30.1952 43.3464 29.1113C44.1552 27.9474 45.0924 26.8794 46.14 25.9276ZM43.178 23.472C44.4908 23.9293 45.7528 24.522 46.9646 25.2163C47.2339 24.9793 47.5199 24.776 47.7892 24.5728C46.5103 23.8615 45.147 23.2858 43.7502 22.8454C43.5483 23.0487 43.3464 23.2519 43.178 23.472ZM44.3561 22.2697C45.8707 22.6761 47.318 23.2349 48.6811 23.9631C49.0009 23.7599 49.3207 23.5736 49.6236 23.3874C48.1763 22.6422 46.6448 22.1004 45.0629 21.7108C44.813 21.8782 44.5767 22.065 44.3561 22.2697ZM45.7865 21.2536C47.4526 21.5923 49.0682 22.1342 50.5828 22.8793C52.1142 22.1342 53.7299 21.5923 55.3791 21.2536C53.9823 20.4238 52.333 19.9496 50.5828 19.9496C48.8327 19.9496 47.2001 20.4238 45.7865 21.2536ZM56.1026 21.7278C54.5233 22.1002 52.9927 22.6572 51.542 23.3874C51.8599 23.5731 52.1741 23.7651 52.4845 23.9631C53.8644 23.2349 55.3117 22.6761 56.8095 22.2697C56.5908 22.0664 56.355 21.8803 56.1026 21.7278ZM57.4154 22.8624C56.0186 23.2858 54.6722 23.8615 53.3764 24.5728C53.6639 24.7778 53.9446 24.9925 54.2179 25.2163C55.4127 24.522 56.6749 23.9293 57.9876 23.472C57.8192 23.2519 57.6341 23.0487 57.4154 22.8624ZM58.5261 24.2002C57.3112 24.6591 56.1443 25.2377 55.0425 25.9276C56.069 26.859 56.9946 27.9259 57.8361 29.1113C58.5812 30.1764 59.2236 31.3105 59.7546 32.4983C60.0239 31.5669 60.1753 30.6185 60.1753 29.6193C60.1753 27.6041 59.5694 25.7412 58.5261 24.2002ZM57.7015 30.8387C56.6917 29.196 55.4801 27.7396 54.1337 26.5034L53.2249 27.1638C55.4968 29.2976 57.3312 31.9733 58.4924 35.0893C58.7617 34.6829 59.0141 34.2595 59.2161 33.8361C58.7953 32.8201 58.2905 31.8209 57.7015 30.8387ZM52.3666 26.4357C52.6696 26.2155 52.9725 25.9953 53.2923 25.7921C53.023 25.5551 52.7369 25.3349 52.4508 25.1147L51.4915 25.7413H51.5084C51.7945 25.9615 52.0806 26.1986 52.3666 26.4357ZM50.5828 25.0808L51.542 24.4881L50.5828 23.8954C50.2631 24.0817 49.9602 24.2849 49.6404 24.4881C49.9602 24.6744 50.2631 24.8776 50.5828 25.0808ZM49.6741 25.7413C49.3543 25.5211 49.0514 25.3179 48.7316 25.1147L47.8734 25.7752L48.799 26.4187C49.0834 26.1836 49.3752 25.9577 49.6741 25.7413ZM50.5828 26.4187C50.2966 26.6388 50.0106 26.8759 49.7078 27.13C50.0106 27.367 50.2967 27.621 50.5828 27.875C50.869 27.621 51.155 27.367 51.4579 27.13C51.1717 26.8929 50.8857 26.6388 50.5828 26.4187ZM50.5828 29.5855C49.2678 31.0126 48.1523 32.6136 47.2675 34.3442C46.6448 35.5296 46.1568 36.7659 45.7865 38.0021C47.2002 38.7981 48.8326 39.2722 50.5828 39.2722C52.3331 39.2722 53.9655 38.798 55.3791 38.0021C55.0088 36.7659 54.5208 35.5296 53.8981 34.3441C52.9893 32.5661 51.8786 30.9741 50.5828 29.5855ZM45.0293 36.0038C46.1231 33.1926 47.7387 30.7371 49.7245 28.7048C49.4383 28.4339 49.1523 28.1799 48.8495 27.909C46.544 30.1613 44.6926 32.9555 43.5651 36.19C43.8822 36.543 44.2253 36.8714 44.5916 37.1723C44.7264 36.7828 44.8778 36.3933 45.0293 36.0038ZM51.4411 28.7048C53.4269 30.7371 55.0424 33.1926 56.1532 36.0038C56.3047 36.3933 56.4393 36.7828 56.5739 37.1723C56.9441 36.8675 57.2975 36.5457 57.6173 36.1901C56.4729 32.9555 54.6217 30.1613 52.3161 27.909L51.4411 28.7048ZM42.6732 35.0893C43.8344 31.9733 45.6688 29.3145 47.9575 27.1808C47.6559 26.9455 47.3472 26.7196 47.0319 26.5034C45.6855 27.7565 44.474 29.2129 43.4641 30.8556C42.8831 31.8081 42.3768 32.8046 41.9496 33.8361C42.1515 34.2764 42.4039 34.6829 42.6732 35.0893ZM50.6333 19.1706C56.5571 19.1706 61.387 24.0309 61.387 29.9919C61.387 35.9529 56.5571 40.8133 50.6333 40.8133C44.7096 40.8133 39.8796 35.953 39.8796 29.9919C39.8796 24.0308 44.7095 19.1706 50.6333 19.1706ZM55.3791 16.7997C55.0762 17.1554 54.7396 17.6126 54.403 18.3407C54.3189 18.1545 54.3189 17.9344 54.3692 17.6973C54.4535 16.9183 54.6723 16.4441 55.0762 15.7836C55.2107 15.5466 55.3455 15.3433 55.4127 15.0893C55.6651 14.3273 55.6147 13.3112 55.0593 12.5153C55.1435 13.4128 54.8742 14.1579 54.5714 14.6151C54.5208 14.6998 54.4703 14.7506 54.403 14.8184C54.0832 15.1401 53.7299 15.4619 53.2754 16.207C53.023 16.6134 52.7706 17.1045 52.535 17.8835C52.434 17.7142 52.4003 17.511 52.4172 17.2739C52.3834 16.4779 52.5182 15.9869 52.8043 15.2587C52.9052 15.0047 53.0062 14.7845 53.0398 14.5135C53.1577 13.7345 52.9557 12.7354 52.2826 12.041C52.5013 12.9047 52.3666 13.6837 52.1311 14.1918C52.0806 14.2764 52.0469 14.3442 51.9965 14.4119C51.7272 14.7845 51.4411 15.157 51.0877 15.9529C50.9194 16.4102 50.7343 16.9352 50.6333 17.7311C50.4987 17.5787 50.4313 17.3755 50.4145 17.1384C50.2631 16.3594 50.3135 15.8514 50.4819 15.0894C50.5492 14.8353 50.6164 14.5982 50.5996 14.3272C50.5996 13.5313 50.2463 12.583 49.4721 11.9902C49.8255 12.82 49.8087 13.616 49.6572 14.1579C49.6236 14.2256 49.5899 14.3103 49.5562 14.378C49.3543 14.8014 49.1187 15.2079 48.8999 16.0546C48.799 16.5288 48.698 17.0876 48.7148 17.8836C48.5801 17.7481 48.4793 17.5618 48.4119 17.3416C48.1426 16.5796 48.1089 16.0885 48.1763 15.2926C48.1932 15.0216 48.21 14.7845 48.1763 14.5305C48.0416 13.7345 47.5368 12.8539 46.6953 12.3967C47.1665 13.1587 47.2675 13.9547 47.2001 14.4966L47.1497 14.7506C47.0151 15.1909 46.8467 15.6312 46.7627 16.5118C46.7289 16.986 46.7122 17.5448 46.8636 18.3408C46.6953 18.2222 46.5774 18.0529 46.4766 17.8497C46.0895 17.1384 45.9885 16.6473 45.9212 15.8683C45.9043 15.5973 45.8875 15.3603 45.7865 15.1063C45.551 14.3442 44.9114 13.5483 44.0027 13.2434C44.5917 13.9039 44.8273 14.6659 44.8273 15.2248C44.8273 15.3095 44.8273 15.3941 44.8105 15.4788C44.7432 15.936 44.659 16.4102 44.7095 17.2739C44.76 17.7481 44.8273 18.3069 45.0966 19.0689C44.9114 18.9843 44.76 18.8319 44.6253 18.6456C44.1374 18.019 43.969 17.5449 43.7839 16.7828C43.7166 16.5118 43.6661 16.2917 43.5315 16.0377C43.178 15.3433 42.4208 14.649 41.4784 14.4797C42.1515 15.0554 42.505 15.7837 42.6059 16.3255C42.6227 16.4102 42.6227 16.4949 42.6227 16.5795C42.6396 17.0368 42.6227 17.511 42.8078 18.3747C42.9256 18.8319 43.0772 19.3738 43.4641 20.0681C43.2791 20.0173 43.1107 19.8988 42.9424 19.7294C42.3534 19.1875 42.101 18.7472 41.8149 18.019C41.7139 17.765 41.613 17.5449 41.4615 17.3247C40.9903 16.6981 40.1488 16.1393 39.1728 16.1223C39.9469 16.5796 40.4013 17.2231 40.5864 17.7481L40.6369 18.0021C40.7211 18.4593 40.7716 18.9335 41.0912 19.7464C41.2764 20.1867 41.5288 20.6947 42.0168 21.3214C41.8149 21.3044 41.6298 21.2028 41.4447 21.0673C40.7883 20.627 40.4686 20.2206 40.0479 19.5601C39.9133 19.3231 39.7955 19.1198 39.5935 18.9335C39.0382 18.3747 38.1126 17.9513 37.1533 18.0868C37.9779 18.4255 38.5332 19.0012 38.8025 19.4924C38.8362 19.5601 38.8698 19.6448 38.9035 19.7294C39.055 20.1528 39.1728 20.6101 39.6104 21.3721C39.8628 21.7786 40.1826 22.2358 40.7716 22.7946C40.5696 22.7946 40.3676 22.7269 40.1657 22.6253C39.442 22.2866 39.0718 21.9479 38.5669 21.3552C38.3818 21.152 38.2303 20.9657 38.0116 20.7963C37.372 20.3391 36.396 20.0681 35.4704 20.356C36.3455 20.5592 36.985 21.0334 37.3048 21.4737C37.372 21.5415 37.4057 21.6092 37.4394 21.6939C37.6581 22.1003 37.8602 22.5406 38.4155 23.2011C38.7184 23.5736 39.1054 23.9801 39.7618 24.4373C39.5767 24.4712 39.3747 24.4373 39.1391 24.3526C38.3819 24.1494 37.9611 23.8616 37.372 23.3535C37.1701 23.1841 36.985 23.0317 36.7494 22.8963C36.0426 22.5406 35.0328 22.439 34.1578 22.8623C35.0496 22.9132 35.7565 23.3027 36.1604 23.6753C36.2108 23.743 36.2613 23.7938 36.3118 23.8785C36.598 24.2341 36.8504 24.6405 37.5067 25.2163C37.8602 25.5211 38.3145 25.8598 39.0381 26.2155C38.853 26.2832 38.6343 26.2832 38.4155 26.2325C37.6244 26.1477 37.1701 25.9275 36.4969 25.5211C36.2614 25.3857 36.0594 25.2501 35.807 25.1824C35.0497 24.9284 34.0568 24.9792 33.2658 25.5381C34.141 25.4534 34.8982 25.7244 35.3526 26.0291C35.4199 26.08 35.4872 26.1308 35.5377 26.1985C35.8743 26.5203 36.194 26.8759 36.9177 27.3332C37.3216 27.5872 37.8265 27.8582 38.5837 28.0783C38.4155 28.1799 38.2135 28.2138 37.9779 28.2138C37.1869 28.2308 36.699 28.0952 35.9753 27.8073C35.7229 27.7057 35.5041 27.6041 35.2348 27.5703C34.4606 27.4517 33.4678 27.6549 32.7777 28.3323C33.636 28.1122 34.4271 28.2476 34.9151 28.4847C34.9992 28.5355 35.0665 28.5694 35.1338 28.6202C35.5041 28.8912 35.8743 29.1791 36.6821 29.5347C37.1196 29.704 37.6413 29.8903 38.4323 29.9919C38.2808 30.1274 38.0789 30.1951 37.8602 30.2121C37.0691 30.3814 36.5812 30.3137 35.8071 30.1443C35.5546 30.0766 35.3189 30.0258 35.0496 30.0258C34.2587 30.0258 33.3163 30.3814 32.7441 31.1604C33.5519 30.8048 34.3429 30.8217 34.8814 30.9742C34.9656 31.008 35.0328 31.0419 35.1169 31.0758C35.5209 31.279 35.9416 31.5161 36.783 31.7362C37.2375 31.8378 37.7928 31.9394 38.5837 31.9225C38.4492 32.058 38.264 32.1595 38.0452 32.2273C37.3048 32.4983 36.7999 32.5322 36.0258 32.4644C35.7565 32.4474 35.521 32.4305 35.2517 32.4644C34.4775 32.5999 33.6023 33.1079 33.148 33.9716C33.8884 33.4805 34.6794 33.3789 35.2349 33.4466L35.4704 33.4974C35.9079 33.6499 36.3455 33.8023 37.2206 33.8869C37.6918 33.9209 38.2471 33.9377 39.0382 33.7853C38.9203 33.9547 38.7521 34.0733 38.5501 34.1748C37.8602 34.5643 37.3552 34.6659 36.5811 34.7337C36.3118 34.7675 36.0763 34.7845 35.8239 34.8692C35.0665 35.1062 34.2924 35.7498 33.9726 36.6642C34.6458 36.0715 35.4031 35.8514 35.9584 35.8344C36.0426 35.8344 36.1268 35.8344 36.2108 35.8514C36.6484 35.9191 37.1196 36.0038 37.9947 35.953C38.466 35.9191 39.0213 35.8344 39.7618 35.5635C39.6944 35.7498 39.543 35.9022 39.3411 36.0377C38.7184 36.5287 38.2472 36.6981 37.4899 36.8844C37.2375 36.9521 37.0019 37.0029 36.7662 37.1384C36.0594 37.4941 35.3862 38.2561 35.218 39.2044C35.7733 38.5271 36.4969 38.1714 37.0356 38.0698C37.1196 38.0529 37.2038 38.0529 37.288 38.0529C37.7423 38.0359 38.2303 38.0529 39.0717 37.8666C39.5262 37.7481 40.0647 37.5956 40.7716 37.2062C40.7211 37.3924 40.5864 37.5787 40.4181 37.7312C39.8796 38.3239 39.442 38.5779 38.7184 38.8658C38.4828 38.9843 38.264 39.069 38.0452 39.2214C37.4057 39.6956 36.8504 40.5424 36.8335 41.5245C37.288 40.7455 37.9442 40.2883 38.466 40.102L38.7015 40.0512C39.1559 39.9665 39.6272 39.9157 40.435 39.594C40.8725 39.4077 41.3773 39.1537 42.0168 38.6795C41.9832 38.8658 41.8991 39.0521 41.7475 39.2383C41.3101 39.8988 40.923 40.2206 40.2498 40.6439C40.031 40.7794 39.8291 40.8979 39.6272 41.1012C39.0718 41.66 38.6679 42.5914 38.8025 43.5567C39.1223 42.7269 39.6944 42.1681 40.1826 41.8971C40.2666 41.8632 40.334 41.8294 40.4181 41.7955C40.8556 41.66 41.3101 41.5245 42.0505 41.0842C42.4545 40.8302 42.9088 40.5084 43.4641 39.9157C43.481 40.1189 43.4136 40.3222 43.2959 40.5254C42.9593 41.2536 42.6227 41.6261 42.0337 42.1342C41.8318 42.3205 41.6467 42.4729 41.4951 42.693C41.0408 43.3366 40.7716 44.3188 41.0577 45.2502C41.2427 44.3696 41.7139 43.7261 42.1684 43.4043C42.2356 43.3535 42.3029 43.3027 42.3703 43.2688C42.7742 43.0487 43.2117 42.8454 43.8849 42.2866C44.2383 41.9818 44.6421 41.5923 45.0966 40.9318C45.1302 41.1181 45.0966 41.3382 45.0293 41.5584C44.8105 42.3204 44.5412 42.7438 44.0195 43.3366C43.8512 43.5398 43.6997 43.7261 43.582 43.9801C43.2286 44.6913 43.1107 45.6905 43.5315 46.5711C43.5988 45.6736 43.969 44.9623 44.3561 44.5728C44.4066 44.5051 44.4739 44.4543 44.5412 44.4034C44.9114 44.1156 45.2985 43.8615 45.8707 43.2011C46.1736 42.8454 46.5102 42.3882 46.8636 41.6601C46.9309 41.8463 46.9309 42.0664 46.8972 42.2866C46.7963 43.0826 46.5943 43.5398 46.1905 44.2172C46.039 44.4542 45.9212 44.6575 45.837 44.9115C45.6015 45.6735 45.652 46.6896 46.2073 47.4855C46.1231 46.588 46.3756 45.826 46.6953 45.3687C46.7458 45.301 46.7963 45.2333 46.8467 45.1825C47.1665 44.8438 47.5199 44.522 47.9912 43.7938C48.2267 43.3874 48.496 42.8793 48.7148 42.1173C48.8158 42.2866 48.8495 42.4898 48.8495 42.7269C48.883 43.5229 48.7485 44.0139 48.4455 44.7421C48.3445 44.9961 48.2605 45.2163 48.21 45.4873C48.0921 46.2663 48.294 47.2654 48.9672 47.9598C48.7485 47.0961 48.883 46.3001 49.1356 45.809C49.1691 45.7244 49.2028 45.6566 49.2533 45.5889C49.5226 45.2163 49.8255 44.8438 50.1621 44.0309C50.3472 43.5906 50.5324 43.0656 50.6333 42.2697C50.7511 42.4221 50.8184 42.6253 50.8521 42.8454C51.0035 43.6414 50.953 44.1324 50.7679 44.9114C50.7006 45.1655 50.6501 45.4026 50.6501 45.6736C50.6501 46.4695 51.0204 47.4178 51.7945 47.9936C51.4411 47.1808 51.4411 46.3848 51.6094 45.8429C51.6263 45.7582 51.6599 45.6905 51.6936 45.6059C51.8955 45.1994 52.1311 44.776 52.3498 43.9293C52.4508 43.472 52.5518 42.9132 52.535 42.1173C52.6864 42.2527 52.7705 42.439 52.8379 42.6592C53.1241 43.4043 53.1409 43.9123 53.0903 44.7082C53.0567 44.9623 53.0398 45.1994 53.0903 45.4703C53.2081 46.2663 53.713 47.1469 54.5713 47.6041C54.1 46.8421 53.9823 46.0461 54.0664 45.5042C54.0664 45.4195 54.0832 45.3349 54.1169 45.2502C54.2515 44.8099 54.4198 44.3696 54.504 43.489C54.5208 43.0148 54.5376 42.456 54.403 41.66C54.5545 41.7786 54.6891 41.9479 54.7901 42.1511C55.1772 42.8454 55.278 43.3535 55.3454 44.1325C55.3623 44.4035 55.3791 44.6405 55.4633 44.8945C55.7157 45.6566 56.3384 46.4356 57.2639 46.7574C56.6749 46.08 56.4393 45.3179 56.4224 44.7591C56.4224 44.6744 56.4224 44.5897 56.4393 44.5051C56.5066 44.0648 56.6076 43.5906 56.5403 42.71C56.5066 42.2358 56.4224 41.677 56.17 40.9318C56.3384 41.0165 56.4898 41.152 56.6245 41.3552C57.1124 41.9818 57.2975 42.4559 57.4827 43.218C57.5331 43.472 57.6005 43.7091 57.7183 43.9462C58.0885 44.6575 58.829 45.3349 59.7883 45.5042C59.0983 44.9454 58.7448 44.2172 58.6438 43.6752C58.6271 43.5906 58.6271 43.5059 58.6271 43.4212C58.6271 42.964 58.644 42.4898 58.4587 41.6262C58.341 41.1689 58.1727 40.627 57.7856 39.9157C57.9876 39.9665 58.1558 40.102 58.3074 40.2714C58.8964 40.8133 59.1488 41.2536 59.4517 41.9818C59.5526 42.2188 59.6368 42.439 59.8051 42.6592C60.2763 43.3027 61.1178 43.8615 62.077 43.8785C61.3197 43.4212 60.8653 42.7608 60.6801 42.2358C60.6466 42.1511 60.6297 42.0834 60.6129 41.9988C60.5456 41.5415 60.4782 41.0673 60.1585 40.2544C59.9734 39.8141 59.7378 39.3061 59.2497 38.6794C59.4517 38.6964 59.6368 38.7811 59.8219 38.9335C60.4782 39.3738 60.798 39.7633 61.2019 40.4407C61.3365 40.6609 61.4712 40.881 61.6563 41.0673C62.2116 41.6261 63.1372 42.0326 64.0965 41.8971C63.2718 41.5753 62.7165 40.9996 62.464 40.5084C62.4135 40.4238 62.38 40.356 62.3631 40.2714C62.2116 39.8311 62.077 39.3738 61.6394 38.6287C61.387 38.2222 61.0672 37.765 60.4951 37.2062C60.6801 37.2062 60.8822 37.257 61.1009 37.3755C61.8078 37.7142 62.1948 38.0529 62.6996 38.6456C62.868 38.8488 63.0194 39.0351 63.2383 39.1876C63.8777 39.6617 64.8538 39.9157 65.7793 39.6448C64.9211 39.4416 64.2816 38.9674 63.945 38.5101C63.8945 38.4424 63.844 38.3747 63.8104 38.3069C63.5916 37.9005 63.4065 37.4602 62.8511 36.7828C62.5314 36.4272 62.1443 36.0208 61.488 35.5635C61.6899 35.5296 61.8918 35.5635 62.1107 35.6312C62.8679 35.8514 63.2886 36.1392 63.8944 36.6473C64.0965 36.8167 64.2816 36.9691 64.5172 37.0876C65.224 37.4432 66.2169 37.5618 67.092 37.1384C66.2001 37.0707 65.5101 36.6981 65.1062 36.3086C65.0389 36.2578 64.9885 36.1901 64.9379 36.1223C64.6686 35.7498 64.3994 35.3603 63.7599 34.7845C63.3896 34.4797 62.9353 34.141 62.2285 33.7853C62.4135 33.7176 62.6155 33.7176 62.8511 33.7515C63.6252 33.8531 64.0965 34.0563 64.7528 34.4797C64.9884 34.6151 65.1904 34.7337 65.4428 34.8184C66.2 35.0554 67.2098 35.0046 68.0007 34.4458C67.1088 34.5305 66.3684 34.2764 65.914 33.9547L65.712 33.8023C65.3923 33.4805 65.0725 33.1249 64.3321 32.6507C63.9282 32.4137 63.4401 32.1427 62.666 31.9225C62.8343 31.8209 63.053 31.787 63.2718 31.787C64.0797 31.7532 64.5677 31.8886 65.2745 32.1935C65.5269 32.2951 65.7457 32.3797 66.015 32.4305C66.7891 32.5491 67.782 32.3459 68.472 31.6685C67.6137 31.8886 66.8396 31.7532 66.3347 31.4991C66.2674 31.4653 66.1832 31.4314 66.116 31.3806C65.7457 31.1096 65.3755 30.8217 64.5846 30.4661C64.1469 30.2968 63.6084 30.1105 62.8175 29.9919C62.969 29.8734 63.1709 29.8057 63.4065 29.7718C64.1806 29.6194 64.6855 29.6702 65.4427 29.8565C65.6952 29.9242 65.9308 29.975 66.2001 29.975C66.9911 29.975 67.9334 29.6024 68.5225 28.8404C67.6979 29.1791 66.9069 29.1791 66.3852 29.0097C66.3011 28.9927 66.2169 28.9589 66.1496 28.925C65.7289 28.7218 65.3249 28.4847 64.4835 28.2646C64.0123 28.163 63.4739 28.0614 62.666 28.0783C62.8006 27.9259 62.9857 27.8413 63.2046 27.7735C63.9618 27.4855 64.4666 27.4686 65.2408 27.5195C65.5101 27.5533 65.7457 27.5703 66.0149 27.5195C66.789 27.4009 67.6642 26.8929 68.1187 26.0292C67.3613 26.5034 66.5872 26.6219 66.0318 26.5542C65.9476 26.5372 65.8635 26.5203 65.7794 26.4864C65.3418 26.351 64.9043 26.1816 64.046 26.0969C63.5747 26.0799 63.0025 26.0631 62.2284 26.2155C62.3295 26.0461 62.4977 25.9106 62.7165 25.809C63.4065 25.4195 63.8945 25.318 64.6687 25.2502C64.938 25.2332 65.1735 25.2163 65.4259 25.1316C66.1832 24.8776 66.9742 24.251 67.2772 23.3196C66.6208 23.9123 65.8635 24.1494 65.3081 24.1664C65.224 24.1664 65.1399 24.1664 65.0557 24.1494C64.6013 24.0817 64.1301 23.9801 63.2718 24.0478C62.8006 24.0817 62.2453 24.1664 61.4881 24.4373C61.5721 24.251 61.7236 24.0986 61.9087 23.9631C62.5314 23.4721 63.0025 23.2858 63.7599 23.0995C64.0161 23.0541 64.2651 22.9743 64.5003 22.8624C65.1904 22.4898 65.8803 21.7447 66.0486 20.7794C65.4765 21.4737 64.7696 21.8294 64.2142 21.931C64.1301 21.9479 64.046 21.9479 63.9618 21.9479C63.5075 21.9479 63.0362 21.9309 62.1948 22.1173C61.7236 22.2358 61.1851 22.4051 60.4951 22.7946C60.5456 22.5914 60.6634 22.4221 60.8317 22.2696C61.3702 21.6769 61.8078 21.4229 62.5314 21.1181C62.7838 21.0165 63.0025 20.9318 63.2214 20.7625C63.844 20.2883 64.3994 19.4415 64.4162 18.4763C63.9618 19.2383 63.3223 19.6956 62.8006 19.8819C62.7165 19.9157 62.6324 19.9327 62.5482 19.9496C62.0939 20.0343 61.6226 20.0851 60.8148 20.4068C60.394 20.5931 59.8892 20.8302 59.2496 21.3213C59.2665 21.135 59.3675 20.9318 59.5022 20.7455C59.9397 20.0851 60.3436 19.7633 60.9999 19.3569C61.2355 19.2214 61.4375 19.0859 61.6226 18.8996C62.1779 18.3408 62.5987 17.4094 62.464 16.4441C62.1274 17.2739 61.5553 17.8327 61.0672 18.1037C60.9999 18.1376 60.9158 18.1714 60.8485 18.1884C60.4109 18.3408 59.9565 18.4763 59.1993 18.9166C58.7953 19.1706 58.341 19.4924 57.7856 20.0681C57.7856 19.8819 57.8529 19.6786 57.9539 19.4754C58.2905 18.7472 58.6271 18.3747 59.2161 17.8497C59.418 17.6803 59.6031 17.5279 59.7715 17.3077C60.2258 16.6642 60.4951 15.682 60.209 14.7507C60.007 15.6143 59.5358 16.2578 59.0983 16.5965C59.0309 16.6473 58.9636 16.6981 58.8795 16.732C58.4756 16.9521 58.0381 17.1384 57.3817 17.6973C57.0115 18.019 56.6076 18.4085 56.17 19.069C56.1195 18.8827 56.1531 18.6626 56.2374 18.4424C56.4561 17.6804 56.7253 17.257 57.2302 16.6474C57.3986 16.4441 57.5668 16.2747 57.6846 16.0207C58.0381 15.3095 58.139 14.3103 57.7184 13.4297C57.6678 14.3272 57.2975 15.0216 56.9105 15.428C56.8432 15.4957 56.7927 15.5465 56.7254 15.5974C56.3551 15.8684 55.9513 16.1393 55.3791 16.7997Z" fill="#FFFF00"/>
</g>
</svg>
