<svg width="13" height="14" viewBox="0 0 13 14" fill="none" xmlns="http://www.w3.org/2000/svg">
<path d="M0.0556641 5.76172C0.0556641 5.05078 0.188965 4.38428 0.455566 3.76221C0.7264 3.1359 1.0988 2.58577 1.57275 2.11182C2.04671 1.63363 2.59473 1.26123 3.2168 0.994629C3.8431 0.728027 4.51172 0.594727 5.22266 0.594727C5.93783 0.594727 6.60645 0.728027 7.22852 0.994629C7.85482 1.26123 8.40495 1.63363 8.87891 2.11182C9.35286 2.58577 9.72314 3.1359 9.98975 3.76221C10.2606 4.38428 10.396 5.05078 10.396 5.76172C10.396 6.32031 10.3092 6.8514 10.1357 7.35498C9.96647 7.85856 9.73161 8.31771 9.43115 8.73242L12.3257 11.6396C12.4146 11.7243 12.4801 11.8237 12.5225 11.938C12.569 12.0522 12.5923 12.1729 12.5923 12.2998C12.5923 12.4775 12.5521 12.6383 12.4717 12.7822C12.3913 12.9261 12.2812 13.0382 12.1416 13.1187C12.002 13.2033 11.8411 13.2456 11.6592 13.2456C11.5322 13.2456 11.4095 13.2223 11.291 13.1758C11.1768 13.1335 11.0731 13.0658 10.98 12.9727L8.06641 10.0591C7.66016 10.3299 7.21582 10.5436 6.7334 10.7002C6.25521 10.8525 5.75163 10.9287 5.22266 10.9287C4.51172 10.9287 3.8431 10.7954 3.2168 10.5288C2.59473 10.2622 2.04671 9.89193 1.57275 9.41797C1.0988 8.94401 0.7264 8.396 0.455566 7.77393C0.188965 7.14762 0.0556641 6.47689 0.0556641 5.76172ZM1.40771 5.76172C1.40771 6.29069 1.50505 6.78581 1.69971 7.24707C1.8986 7.70833 2.17367 8.11458 2.5249 8.46582C2.87614 8.81283 3.28239 9.08577 3.74365 9.28467C4.20492 9.48356 4.69792 9.58301 5.22266 9.58301C5.75163 9.58301 6.24674 9.48356 6.70801 9.28467C7.16927 9.08577 7.5734 8.81283 7.92041 8.46582C8.27165 8.11458 8.54671 7.70833 8.74561 7.24707C8.9445 6.78581 9.04395 6.29069 9.04395 5.76172C9.04395 5.23698 8.9445 4.74398 8.74561 4.28271C8.54671 3.82145 8.27165 3.4152 7.92041 3.06396C7.5734 2.71273 7.16927 2.43978 6.70801 2.24512C6.24674 2.04622 5.75163 1.94678 5.22266 1.94678C4.69792 1.94678 4.20492 2.04622 3.74365 2.24512C3.28239 2.43978 2.87614 2.71273 2.5249 3.06396C2.17367 3.4152 1.8986 3.82145 1.69971 4.28271C1.50505 4.74398 1.40771 5.23698 1.40771 5.76172Z" fill="#343434"/>
</svg>
