<svg width="25" height="23" viewBox="0 0 25 23" fill="none" xmlns="http://www.w3.org/2000/svg">
<path d="M8.71713 22.8135C8.92386 22.8135 9.07316 22.6643 9.10762 22.4463C9.47514 19.3823 9.62444 19.3019 12.7484 18.797C12.9896 18.7511 13.1388 18.6363 13.1388 18.4069C13.1388 18.1888 12.9896 18.0511 12.7943 18.0167C9.64742 17.42 9.47514 17.4315 9.10762 14.3675C9.07316 14.1494 8.92386 14.0003 8.71713 14.0003C8.49892 14.0003 8.34961 14.1494 8.32664 14.356C7.92467 17.4658 7.8213 17.5691 4.63995 18.0167C4.44471 18.0397 4.29539 18.1888 4.29539 18.4069C4.29539 18.6249 4.44471 18.7511 4.63995 18.797C7.8213 19.4052 7.91318 19.4052 8.32664 22.4692C8.34961 22.6643 8.49892 22.8135 8.71713 22.8135ZM3.26174 12.8182C3.42254 12.8182 3.51442 12.7035 3.54887 12.5543C3.93936 10.374 3.95085 10.2362 6.25934 9.84608C6.40864 9.81161 6.52349 9.71984 6.52349 9.55918C6.52349 9.39852 6.40864 9.29524 6.25934 9.27229C3.95085 8.87064 3.93936 8.73294 3.54887 6.55257C3.51442 6.40338 3.42254 6.3001 3.26174 6.3001C3.10095 6.3001 3.00907 6.40338 2.97462 6.55257C2.58413 8.73294 2.57264 8.87064 0.264155 9.27229C0.114851 9.29524 0 9.39852 0 9.55918C0 9.71984 0.114851 9.81161 0.264155 9.84608C2.57264 10.2362 2.58413 10.374 2.97462 12.5543C3.00907 12.7035 3.10095 12.8182 3.26174 12.8182ZM9.55554 5.47386C9.69335 5.47386 9.76227 5.39353 9.78524 5.26731C10.1757 3.43121 10.1528 3.36235 12.0822 2.97219C12.2085 2.94923 12.3005 2.8689 12.3005 2.74267C12.3005 2.60497 12.2085 2.52463 12.0822 2.50168C10.1528 2.11151 10.1757 2.04266 9.78524 0.218036C9.76227 0.0918048 9.69335 0 9.55554 0C9.41772 0 9.3488 0.0918048 9.32583 0.218036C8.93535 2.04266 8.95831 2.11151 7.02884 2.50168C6.9025 2.52463 6.81062 2.60497 6.81062 2.74267C6.81062 2.8689 6.9025 2.94923 7.02884 2.97219C8.95831 3.36235 8.93535 3.43121 9.32583 5.26731C9.3488 5.39353 9.41772 5.47386 9.55554 5.47386ZM19.0422 9.52475C19.203 9.52475 19.2948 9.42147 19.3293 9.27229C19.7198 7.09193 19.7313 6.95421 22.0398 6.55257C22.2005 6.52962 22.3039 6.42634 22.3039 6.26568C22.3039 6.10503 22.2005 6.01321 22.0398 5.97879C19.7313 5.58862 19.7198 5.45092 19.3293 3.27054C19.2948 3.12136 19.203 3.00661 19.0422 3.00661C18.8813 3.00661 18.7895 3.12136 18.755 3.27054C18.3646 5.45092 18.3531 5.58862 16.0446 5.97879C15.8953 6.01321 15.7805 6.10503 15.7805 6.26568C15.7805 6.42634 15.8953 6.52962 16.0446 6.55257C18.3531 6.95421 18.3646 7.09193 18.755 9.27229C18.7895 9.42147 18.8813 9.52475 19.0422 9.52475ZM22.8782 22.6299C23.3605 23.1234 24.1875 23.1234 24.6468 22.6299C25.1177 22.125 25.1177 21.3446 24.6468 20.8627L13.7246 9.91492C13.2422 9.43294 12.4153 9.43294 11.9559 9.91492C11.4735 10.4198 11.4851 11.2116 11.9559 11.6936L22.8782 22.6299ZM16.1938 14.7462L12.8287 11.3723C12.622 11.1657 12.5531 10.9363 12.7598 10.7412C12.9321 10.5575 13.1733 10.6034 13.3916 10.8215L16.7682 14.1953L16.1938 14.7462Z" fill="#8A8886"/>
</svg>
