<svg width="18" height="19" viewBox="0 0 18 19" fill="none" xmlns="http://www.w3.org/2000/svg">
    <path
        d="M16.9995 13.5689V15.9776C17.0004 16.2012 16.9545 16.4225 16.8648 16.6274C16.775 16.8323 16.6434 17.0162 16.4783 17.1673C16.3132 17.3185 16.1183 17.4336 15.906 17.5052C15.6938 17.5768 15.4689 17.6035 15.2457 17.5833C12.7702 17.3149 10.3923 16.4706 8.30312 15.1185C6.35937 13.8858 4.71141 12.2411 3.47627 10.3012C2.11669 8.20663 1.27059 5.82191 1.00653 3.3402C0.986426 3.11818 1.01286 2.89441 1.08416 2.68314C1.15546 2.47188 1.27005 2.27774 1.42065 2.1131C1.57124 1.94845 1.75454 1.8169 1.95886 1.72683C2.16319 1.63676 2.38407 1.59013 2.60744 1.58992H5.02086C5.41128 1.58609 5.78977 1.72407 6.0858 1.97814C6.38182 2.23222 6.57517 2.58505 6.62981 2.97088C6.73168 3.7417 6.92059 4.49854 7.19295 5.22698C7.30118 5.51435 7.32461 5.82666 7.26045 6.12691C7.19629 6.42716 7.04723 6.70276 6.83093 6.92106L5.80925 7.94072C6.95446 9.95077 8.62206 11.6151 10.6361 12.758L11.6578 11.7383C11.8765 11.5225 12.1527 11.3737 12.4535 11.3097C12.7544 11.2456 13.0673 11.269 13.3552 11.377C14.0851 11.6489 14.8435 11.8374 15.6158 11.9391C16.0066 11.9941 16.3635 12.1905 16.6186 12.491C16.8737 12.7916 17.0093 13.1752 16.9995 13.5689Z"
        stroke="#7153ff" strokeWidth="1.5" strokeLinecap="round" strokeLinejoin="round" />
</svg>