<svg width="17" height="18" viewBox="0 0 17 18" fill="none" xmlns="http://www.w3.org/2000/svg">
<path d="M3.5 1L1 4.2V15.4C1 15.8243 1.17559 16.2313 1.48816 16.5314C1.80072 16.8314 2.22464 17 2.66667 17H14.3333C14.7754 17 15.1993 16.8314 15.5118 16.5314C15.8244 16.2313 16 15.8243 16 15.4V4.2L13.5 1H3.5Z" stroke="#7153FF" strokeLinecap="round" strokeLinejoin="round"/>
<path d="M1 4H16" stroke="#7153FF" strokeLinecap="round" strokeLinejoin="round"/>
<path d="M12 7C12 7.79565 11.6313 8.55871 10.9749 9.12132C10.3185 9.68393 9.42826 10 8.5 10C7.57174 10 6.6815 9.68393 6.02513 9.12132C5.36875 8.55871 5 7.79565 5 7" stroke="#7153FF" strokeLinecap="round" strokeLinejoin="round"/>
</svg>
