<svg width="15" height="15" viewBox="0 0 15 15" fill="none" xmlns="http://www.w3.org/2000/svg">
<path d="M7.04511 10.7951C8.84445 10.7951 10.3396 9.30406 10.3396 7.50319C10.3396 5.69593 8.84445 4.20493 7.04511 4.20493C5.24574 4.20493 3.7506 5.69593 3.7506 7.50319C3.7506 9.30406 5.24574 10.7951 7.04511 10.7951ZM7.04511 9.80748C5.78295 9.80748 4.73442 8.76186 4.73442 7.50319C4.73442 6.23814 5.78295 5.19248 7.04511 5.19248C8.30721 5.19248 9.35579 6.23814 9.35579 7.50319C9.35579 8.76186 8.30721 9.80748 7.04511 9.80748ZM7.05157 3.01083C7.35579 3.01083 7.6082 2.7591 7.6082 2.44928V1.06155C7.6082 0.751729 7.35579 0.5 7.05157 0.5C6.74089 0.5 6.48848 0.751729 6.48848 1.06155V2.44928C6.48848 2.7591 6.74089 3.01083 7.05157 3.01083ZM10.2231 4.33402C10.4431 4.54702 10.7991 4.55348 11.0192 4.33402L12.0095 3.34647C12.2231 3.13347 12.2231 2.77201 12.0095 2.55256C11.7959 2.33955 11.4399 2.33955 11.2199 2.55256L10.2231 3.54656C10.0095 3.76602 10.0095 4.12102 10.2231 4.33402ZM11.537 7.50319C11.537 7.80657 11.7959 8.05834 12.1001 8.05834H13.4917C13.7959 8.05834 14.0483 7.80657 14.0483 7.50319C14.0483 7.19987 13.7959 6.94166 13.4917 6.94166H12.1001C11.7959 6.94166 11.537 7.19987 11.537 7.50319ZM10.2231 10.6724C10.0095 10.8919 10.0095 11.2469 10.2231 11.4599L11.2199 12.4603C11.4399 12.6669 11.7959 12.6604 12.0095 12.4539C12.2231 12.2344 12.2231 11.8794 12.0095 11.6664L11.0127 10.6724C10.7991 10.4659 10.4431 10.4659 10.2231 10.6724ZM7.05157 11.9956C6.74089 11.9956 6.48848 12.2473 6.48848 12.5507V13.9449C6.48848 14.2482 6.74089 14.5 7.05157 14.5C7.35579 14.5 7.6082 14.2482 7.6082 13.9449V12.5507C7.6082 12.2473 7.35579 11.9956 7.05157 11.9956ZM3.87357 10.6724C3.65351 10.4659 3.29105 10.4659 3.07746 10.6724L2.08717 11.66C1.87358 11.8729 1.87358 12.228 2.0807 12.4474C2.29429 12.654 2.65675 12.6604 2.87681 12.4539L3.8671 11.4599C4.08069 11.2469 4.08069 10.8919 3.87357 10.6724ZM2.55966 7.50319C2.55966 7.19987 2.30076 6.94166 1.99655 6.94166H0.604972C0.300766 6.94166 0.0483398 7.19987 0.0483398 7.50319C0.0483398 7.80657 0.300766 8.05834 0.604972 8.05834H1.99655C2.30076 8.05834 2.55966 7.80657 2.55966 7.50319ZM3.8671 4.33402C4.08069 4.12748 4.08069 3.75956 3.87357 3.54656L2.88329 2.55256C2.66969 2.34601 2.30723 2.33955 2.09364 2.55256C1.88005 2.77201 1.88005 3.13347 2.08717 3.34001L3.07746 4.33402C3.29105 4.54702 3.64704 4.54702 3.8671 4.33402Z" fill="#8A8886"/>
</svg>
