<svg width="14" height="15" viewBox="0 0 14 15" fill="none" xmlns="http://www.w3.org/2000/svg">
<path d="M6.54834 13.64C8.31991 13.64 9.7665 11.0208 9.7665 7.50957C9.7665 3.97916 8.32632 1.36003 6.54834 1.36003C4.77041 1.36003 3.33021 3.97916 3.33021 7.50957C3.33021 11.0208 4.77678 13.64 6.54834 13.64ZM6.54834 2.13111C7.79738 2.13111 8.91258 4.61641 8.91258 7.50957C8.91258 10.3517 7.79738 12.8625 6.54834 12.8625C5.29933 12.8625 4.18413 10.3517 4.18413 7.50957C4.18413 4.61641 5.29933 2.13111 6.54834 2.13111ZM6.13413 1.44925V13.5189H6.96896V1.44925H6.13413ZM6.54834 9.89291C4.5856 9.89291 2.84589 10.4091 1.95374 11.2311L2.59736 11.7601C3.43855 11.0909 4.80865 10.7277 6.54834 10.7277C8.28804 10.7277 9.65818 11.0909 10.4994 11.7601L11.1429 11.2311C10.2508 10.4091 8.5111 9.89291 6.54834 9.89291ZM12.4302 7.07623H0.666479V7.911H12.4302V7.07623ZM6.54834 5.13259C8.5111 5.13259 10.2508 4.61641 11.1429 3.79435L10.4994 3.26543C9.65818 3.92817 8.28804 4.29778 6.54834 4.29778C4.80865 4.29778 3.43855 3.92817 2.59736 3.26543L1.95374 3.79435C2.84589 4.61641 4.5856 5.13259 6.54834 5.13259ZM6.54834 13.9968C10.1042 13.9968 13.0483 11.0463 13.0483 7.4968C13.0483 3.94092 10.0979 0.996796 6.54198 0.996796C2.99246 0.996796 0.0483398 3.94092 0.0483398 7.4968C0.0483398 11.0463 2.99884 13.9968 6.54834 13.9968ZM6.54834 13.1302C3.47041 13.1302 0.915008 10.5748 0.915008 7.4968C0.915008 4.41886 3.46403 1.86346 6.54198 1.86346C9.61995 1.86346 12.1817 4.41886 12.1817 7.4968C12.1817 10.5748 9.62631 13.1302 6.54834 13.1302Z" fill="#8A8886"/>
</svg>
