<svg width="9" height="7" viewBox="0 0 9 7" fill="none" xmlns="http://www.w3.org/2000/svg">
<g id="Group 552">
<g id="Group-2">
<path id="YouTube-icon" d="M4.7977 0.699238C5.33432 0.702235 7.25082 0.723216 7.78744 0.87008C8.13012 0.962341 8.40032 1.23253 8.49258 1.57522C8.63944 2.11184 8.65561 3.14715 8.65723 3.432L8.65712 3.55404C8.65521 3.79407 8.63853 4.8759 8.49258 5.43041C8.40032 5.77309 8.13012 6.04329 7.78744 6.13555C7.18693 6.29358 4.85845 6.30003 4.66937 6.30029H4.64497C4.45637 6.30001 2.13369 6.29331 1.52687 6.12896C1.18418 6.0367 0.913993 5.7665 0.821732 5.42382C0.675809 4.87515 0.659133 3.78882 0.657227 3.54768V3.45159C0.659133 3.21156 0.675809 2.12973 0.821732 1.57522C0.913993 1.23253 1.19077 0.955751 1.52687 0.86349C2.06349 0.722274 3.97999 0.702101 4.51661 0.699219L4.7977 0.699238ZM3.85976 2.30013V4.69891L5.94222 3.49952L3.85976 2.30013Z" fill="#FF0000"/>
</g>
</g>
</svg>
