<svg width="51" height="50" viewBox="0 0 51 50" fill="none" xmlns="http://www.w3.org/2000/svg">
<path d="M9.03125 4.03008e-06H41.9688C43.1551 -0.00112026 44.33 0.233004 45.4262 0.688979C46.5224 1.14495 47.5184 1.81383 48.3573 2.65732C49.1962 3.50081 49.8613 4.50236 50.3148 5.60465C50.7683 6.70694 51.0011 7.88832 51 9.0812V40.9188C51.0011 42.1117 50.7683 43.2931 50.3148 44.3954C49.8613 45.4976 49.1962 46.4992 48.3573 47.3427C47.5184 48.1862 46.5224 48.855 45.4262 49.311C44.33 49.767 43.1551 50.0011 41.9688 50H9.03125C7.84494 50.0011 6.67005 49.767 5.57382 49.311C4.47759 48.855 3.48155 48.1862 2.6427 47.3427C1.80385 46.4992 1.13866 45.4976 0.68519 44.3954C0.231723 43.2931 -0.0011141 42.1117 4.00791e-06 40.9188V9.0812C-0.0011141 7.88832 0.231723 6.70694 0.68519 5.60465C1.13866 4.50236 1.80385 3.50081 2.6427 2.65732C3.48155 1.81383 4.47759 1.14495 5.57382 0.688979C6.67005 0.233004 7.84494 -0.00112026 9.03125 4.03008e-06Z" fill="#330000"/>
<path d="M25.2194 29.8011H17.2901L15.6701 34.7058C15.652 34.7952 15.6004 34.8747 15.5255 34.9288C15.4505 34.9829 15.3577 35.0075 15.2651 34.998H11.2578C11.0234 34.998 10.9594 34.8728 11.0234 34.6223L17.8869 15.2749C17.9508 15.0662 18.0148 14.8366 18.1 14.5862C18.1858 14.1389 18.2287 13.6847 18.2279 13.2296C18.2216 13.1773 18.2356 13.1246 18.2672 13.082C18.2988 13.0395 18.3457 13.0102 18.3985 13H23.9191C24.0897 13 24.1749 13.0626 24.1962 13.167L31.9763 34.6641C32.0403 34.8936 31.9763 34.998 31.7632 34.998H27.3083C27.2329 35.0051 27.1574 34.986 27.0951 34.944C27.0327 34.902 26.9874 34.8398 26.9672 34.7684L25.2194 29.8011ZM18.5264 25.5643H23.9405C23.8126 25.126 23.642 24.6043 23.4502 24.0616C23.2584 23.519 23.0665 22.8928 22.8747 22.2667C22.6828 21.6406 22.4697 20.9936 22.2565 20.3466C22.0434 19.6996 21.8516 19.0943 21.681 18.4891C21.5105 17.8838 21.3613 17.362 21.2121 16.8611H21.1695C20.9779 17.7708 20.736 18.6696 20.4447 19.5535C20.125 20.5553 19.8053 21.5988 19.4642 22.6424C19.1658 23.7068 18.8461 24.6877 18.5264 25.5643Z" fill="#FF9A00"/>
<path d="M36.4698 16.3073C36.1404 16.3149 35.8129 16.2534 35.5063 16.1264C35.1996 15.9993 34.9201 15.8093 34.6838 15.5673C34.224 15.0376 33.9792 14.3394 34.0015 13.622C33.9897 13.2724 34.0479 12.9242 34.1723 12.5999C34.2968 12.2757 34.4848 11.9827 34.7239 11.7401C35.2063 11.2598 35.8463 10.9946 36.51 11.0001C37.2926 11.0001 37.8946 11.2538 38.3361 11.7401C38.7807 12.2528 39.0182 12.9278 38.9983 13.622C39.0106 13.9792 38.9547 14.3354 38.8341 14.6696C38.7135 15.0037 38.5305 15.3089 38.296 15.5673C38.0595 15.8211 37.7741 16.0184 37.4591 16.1461C37.1441 16.2738 36.8067 16.3288 36.4698 16.3073ZM34.2223 34.6607V18.3795C34.2223 18.168 34.3025 18.0835 34.4831 18.0835H38.4565C38.6371 18.0835 38.7174 18.1892 38.7174 18.3795V34.6607C38.7174 34.8933 38.6371 34.999 38.4565 34.999H34.5233C34.4811 35.0027 34.4387 34.9962 34.3992 34.9802C34.3597 34.9642 34.3242 34.939 34.2952 34.9064C34.2663 34.8739 34.2447 34.8349 34.232 34.7924C34.2194 34.7498 34.2161 34.7048 34.2223 34.6607Z" fill="#FF9A00"/>
</svg>
