<svg width="16" height="21" viewBox="0 0 16 21" fill="none" xmlns="http://www.w3.org/2000/svg">
<path d="M1.8965 19.0593L12.8423 20.9387C14.8062 21.2753 16 20.2095 16 18.1337V6.56767C16 4.66025 14.9891 3.96836 13.0349 3.63175L2.41636 1.81783C0.95307 1.56539 0 2.34144 0 3.7346V16.9369C0 18.1337 0.635378 18.8443 1.8965 19.0593ZM2.27195 17.5727C1.78098 17.4885 1.54994 17.2174 1.54994 16.7219V3.98705C1.54994 3.4915 1.8965 3.23904 2.4645 3.3232L12.9578 5.11841C13.9302 5.28671 14.45 5.67942 14.45 6.54897V17.9654C14.45 19.0313 13.8146 19.5643 12.775 19.3773L2.27195 17.5727ZM13.5933 4.79116H15.1432V2.60324C15.1432 0.630378 13.7857 -0.304628 11.5042 0.0880748L1.44404 1.80848L2.02166 3.1175L12.0529 1.49994C13.0157 1.34099 13.5933 1.73368 13.5933 2.54715V4.79116ZM2.83032 7.68033C2.83032 8.46573 4.09145 8.46573 4.09145 7.72708V6.47417C4.09145 6.22171 4.24548 6.10952 4.54391 6.15627L5.81467 6.38067C6.63296 6.52092 6.79662 5.32411 6.06497 5.19321L4.00481 4.83791C3.27316 4.71636 2.83032 5.02491 2.83032 5.70746V7.68033ZM11.9085 9.2044C11.9085 9.98983 13.1696 10.0646 13.1696 9.2044V7.64292C13.1696 6.77337 12.7364 6.33392 11.6678 6.14691L10.6667 5.97862C9.79062 5.82902 9.57884 7.01648 10.4549 7.16608L11.2539 7.30633C11.8219 7.39983 11.9085 7.73643 11.9085 8.01693V9.2044ZM4.09145 13.6363C4.09145 12.8509 2.83032 12.7761 2.83032 13.6363V15.1978C2.83032 16.0673 3.26353 16.5068 4.33212 16.6938L5.33332 16.8621C6.20937 17.0117 6.42117 15.8149 5.54512 15.6747L4.74608 15.5344C4.17809 15.4409 4.09145 15.1043 4.09145 14.8238V13.6363ZM13.1696 15.1604C13.1696 14.375 11.9085 14.375 11.9085 15.1136V16.3665C11.9085 16.619 11.7545 16.7312 11.456 16.6845L10.1853 16.46C9.36697 16.3198 9.20333 17.5166 9.93504 17.6475L11.9952 18.0028C12.7268 18.1244 13.1696 17.8158 13.1696 17.1333V15.1604Z" fill="#7153FF"/>
</svg>
