<svg width="18" height="20" viewBox="0 0 18 20" fill="none" xmlns="http://www.w3.org/2000/svg">
<path d="M17 13.6007V6.39926C16.9997 6.08354 16.9174 5.77346 16.7614 5.50012C16.6054 5.22678 16.3811 4.9998 16.1111 4.84194L9.88889 1.2412C9.61863 1.08319 9.31207 1 9 1C8.68793 1 8.38137 1.08319 8.11111 1.2412L1.88889 4.84194C1.6189 4.9998 1.39465 5.22678 1.23863 5.50012C1.08262 5.77346 1.00032 6.08354 1 6.39926V13.6007C1.00032 13.9165 1.08262 14.2265 1.23863 14.4999C1.39465 14.7732 1.6189 15.0002 1.88889 15.1581L8.11111 18.7588C8.38137 18.9168 8.68793 19 9 19C9.31207 19 9.61863 18.9168 9.88889 18.7588L16.1111 15.1581C16.3811 15.0002 16.6054 14.7732 16.7614 14.4999C16.9174 14.2265 16.9997 13.9165 17 13.6007Z" stroke="#7153FF" strokeLinecap="round" strokeLinejoin="round"/>
<path d="M1 5L9 10L17 5" stroke="#7153FF" strokeLinecap="round" strokeLinejoin="round"/>
<path d="M9 19V10" stroke="#7153FF" strokeLinecap="round" strokeLinejoin="round"/>
</svg>
