<svg width="16" height="12" viewBox="0 0 16 12" fill="none" xmlns="http://www.w3.org/2000/svg">
<path d="M0.55312 0.889845C0.75548 0.889845 0.930861 0.722192 0.930861 0.528748C0.930861 0.328855 0.75548 0.167652 0.55312 0.167652C0.344013 0.167652 0.17538 0.328855 0.17538 0.528748C0.17538 0.722192 0.344013 0.889845 0.55312 0.889845ZM2.6779 0.889845C2.88701 0.889845 3.05564 0.722192 3.05564 0.528748C3.05564 0.328855 2.88701 0.167652 2.6779 0.167652C2.4688 0.167652 2.30016 0.328855 2.30016 0.528748C2.30016 0.722192 2.4688 0.889845 2.6779 0.889845ZM4.80269 0.889845C5.0118 0.889845 5.18043 0.722192 5.18043 0.528748C5.18043 0.328855 5.0118 0.167652 4.80269 0.167652C4.60033 0.167652 4.42495 0.328855 4.42495 0.528748C4.42495 0.722192 4.60033 0.889845 4.80269 0.889845ZM6.93424 1.05105C7.23102 1.05105 7.4806 0.812465 7.4806 0.528748C7.4806 0.238581 7.23102 0 6.93424 0C6.63067 0 6.38109 0.238581 6.38109 0.528748C6.38109 0.812465 6.63067 1.05105 6.93424 1.05105ZM9.05902 1.05105C9.35581 1.05105 9.60539 0.812465 9.60539 0.528748C9.60539 0.238581 9.35581 0 9.05902 0C8.75545 0 8.50587 0.238581 8.50587 0.528748C8.50587 0.812465 8.75545 1.05105 9.05902 1.05105ZM11.1905 0.889845C11.3997 0.889845 11.5683 0.722192 11.5683 0.528748C11.5683 0.328855 11.3997 0.167652 11.1905 0.167652C10.9882 0.167652 10.8128 0.328855 10.8128 0.528748C10.8128 0.722192 10.9882 0.889845 11.1905 0.889845ZM13.3221 0.889845C13.5244 0.889845 13.6998 0.722192 13.6998 0.528748C13.6998 0.328855 13.5244 0.167652 13.3221 0.167652C13.1129 0.167652 12.9376 0.328855 12.9376 0.528748C12.9376 0.722192 13.1129 0.889845 13.3221 0.889845ZM15.4468 0.889845C15.6492 0.889845 15.8246 0.722192 15.8246 0.528748C15.8246 0.328855 15.6492 0.167652 15.4468 0.167652C15.2378 0.167652 15.0691 0.328855 15.0691 0.528748C15.0691 0.722192 15.2378 0.889845 15.4468 0.889845ZM0.55312 3.11446C0.75548 3.11446 0.930861 2.9468 0.930861 2.74691C0.930861 2.55346 0.75548 2.38581 0.55312 2.38581C0.344013 2.38581 0.17538 2.55346 0.17538 2.74691C0.17538 2.9468 0.344013 3.11446 0.55312 3.11446ZM2.6779 3.27565C2.98145 3.27565 3.23103 3.03708 3.23103 2.74691C3.23103 2.46319 2.98145 2.22461 2.6779 2.22461C2.37437 2.22461 2.12479 2.46319 2.12479 2.74691C2.12479 3.03708 2.37437 3.27565 2.6779 3.27565ZM4.80269 3.27565C4.89038 3.27565 4.97807 3.24986 5.05227 3.21763C5.13996 3.05642 5.24114 2.89522 5.35581 2.74691C5.35581 2.46319 5.10623 2.22461 4.80269 2.22461C4.5059 2.22461 4.25632 2.46319 4.25632 2.74691C4.25632 3.03708 4.5059 3.27565 4.80269 3.27565ZM11.1905 3.27565C11.4941 3.27565 11.7436 3.03708 11.7436 2.74691C11.7436 2.46319 11.4941 2.22461 11.1905 2.22461C10.9072 2.22461 10.6779 2.43095 10.6442 2.68888C10.7791 2.86297 10.9005 3.04352 11.0017 3.24342C11.0624 3.26921 11.1231 3.27565 11.1905 3.27565ZM13.3221 3.27565C13.6189 3.27565 13.8685 3.03708 13.8685 2.74691C13.8685 2.46319 13.6189 2.22461 13.3221 2.22461C13.0185 2.22461 12.769 2.46319 12.769 2.74691C12.769 3.03708 13.0185 3.27565 13.3221 3.27565ZM15.4468 3.11446C15.6492 3.11446 15.8246 2.9468 15.8246 2.74691C15.8246 2.55346 15.6492 2.38581 15.4468 2.38581C15.2378 2.38581 15.0691 2.55346 15.0691 2.74691C15.0691 2.9468 15.2378 3.11446 15.4468 3.11446ZM0.55312 5.50027C0.849914 5.50027 1.0995 5.26169 1.0995 4.97152C1.0995 4.68135 0.849914 4.44277 0.55312 4.44277C0.249578 4.44277 0 4.68135 0 4.97152C0 5.26169 0.249578 5.50027 0.55312 5.50027ZM2.6779 5.66149C3.07588 5.66149 3.39966 5.35196 3.39966 4.97152C3.39966 4.59108 3.07588 4.28157 2.6779 4.28157C2.27993 4.28157 1.95615 4.59108 1.95615 4.97152C1.95615 5.35196 2.27993 5.66149 2.6779 5.66149ZM4.08094 4.97152C4.08094 5.33906 4.39123 5.64856 4.76897 5.66149C4.69477 5.39065 4.66104 5.10048 4.66104 4.80387C4.66104 4.62332 4.67453 4.45567 4.70151 4.28802C4.35075 4.3396 4.08094 4.62332 4.08094 4.97152ZM11.919 4.97152C11.919 4.64266 11.6694 4.36539 11.3389 4.29447C11.3659 4.45567 11.3727 4.61687 11.3727 4.79097C11.3727 5.09403 11.3389 5.3842 11.2647 5.66149C11.6222 5.62281 11.919 5.32617 11.919 4.97152ZM13.3221 5.66149C13.7133 5.66149 14.0438 5.35196 14.0438 4.97152C14.0438 4.59108 13.7133 4.28157 13.3221 4.28157C12.9241 4.28157 12.5936 4.59108 12.5936 4.97152C12.5936 5.35196 12.9241 5.66149 13.3221 5.66149ZM15.4468 5.50027C15.7504 5.50027 16 5.26169 16 4.97152C16 4.68135 15.7504 4.44277 15.4468 4.44277C15.1433 4.44277 14.8937 4.68135 14.8937 4.97152C14.8937 5.26169 15.1433 5.50027 15.4468 5.50027ZM0.55312 7.7184C0.849914 7.7184 1.0995 7.47988 1.0995 7.19612C1.0995 6.90597 0.849914 6.66739 0.55312 6.66739C0.249578 6.66739 0 6.90597 0 7.19612C0 7.47988 0.249578 7.7184 0.55312 7.7184ZM2.6779 7.88606C3.07588 7.88606 3.39966 7.57011 3.39966 7.19612C3.39966 6.81568 3.07588 6.49973 2.6779 6.49973C2.27993 6.49973 1.95615 6.81568 1.95615 7.19612C1.95615 7.57011 2.27993 7.88606 2.6779 7.88606ZM4.49241 7.82158C4.80269 7.62816 5.14671 7.47338 5.51096 7.33153C5.59864 6.90597 5.26138 6.49973 4.80269 6.49973C4.41146 6.49973 4.08094 6.81568 4.08094 7.19612C4.08094 7.46694 4.25632 7.70553 4.49241 7.82158ZM11.5278 7.80226C11.7504 7.68622 11.919 7.45407 11.919 7.19612C11.919 6.81568 11.5885 6.49973 11.1905 6.49973C10.7386 6.49973 10.4013 6.89954 10.4891 7.32509C10.86 7.45407 11.204 7.62173 11.5278 7.80226ZM13.3221 7.88606C13.7133 7.88606 14.0438 7.57011 14.0438 7.19612C14.0438 6.81568 13.7133 6.49973 13.3221 6.49973C12.9241 6.49973 12.5936 6.81568 12.5936 7.19612C12.5936 7.57011 12.9241 7.88606 13.3221 7.88606ZM15.4468 7.7184C15.7504 7.7184 16 7.47988 16 7.19612C16 6.90597 15.7504 6.66739 15.4468 6.66739C15.1433 6.66739 14.8937 6.90597 14.8937 7.19612C14.8937 7.47988 15.1433 7.7184 15.4468 7.7184ZM0.55312 9.77537C0.75548 9.77537 0.930861 9.61421 0.930861 9.4143C0.930861 9.22084 0.75548 9.05318 0.55312 9.05318C0.344013 9.05318 0.17538 9.22084 0.17538 9.4143C0.17538 9.61421 0.344013 9.77537 0.55312 9.77537ZM2.44182 9.88498C2.59696 9.5884 2.79932 9.29177 3.02867 9.0145C2.93423 8.93713 2.81281 8.89202 2.6779 8.89202C2.37437 8.89202 2.12479 9.1306 2.12479 9.4143C2.12479 9.62064 2.25295 9.80118 2.44182 9.88498ZM13.5852 9.87854C13.747 9.7883 13.8685 9.61421 13.8685 9.4143C13.8685 9.1306 13.6189 8.89202 13.3221 8.89202C13.1872 8.89202 13.0793 8.9307 12.9848 8.99519C13.2277 9.27889 13.4233 9.57547 13.5852 9.87854ZM15.4468 9.77537C15.6492 9.77537 15.8246 9.61421 15.8246 9.4143C15.8246 9.22084 15.6492 9.05318 15.4468 9.05318C15.2378 9.05318 15.0691 9.22084 15.0691 9.4143C15.0691 9.61421 15.2378 9.77537 15.4468 9.77537ZM0.55312 12C0.75548 12 0.930861 11.8388 0.930861 11.6389C0.930861 11.439 0.75548 11.2778 0.55312 11.2778C0.344013 11.2778 0.17538 11.439 0.17538 11.6389C0.17538 11.8388 0.344013 12 0.55312 12ZM15.4468 12C15.6492 12 15.8246 11.8388 15.8246 11.6389C15.8246 11.439 15.6492 11.2778 15.4468 11.2778C15.2378 11.2778 15.0691 11.439 15.0691 11.6389C15.0691 11.8388 15.2378 12 15.4468 12Z" fill="#7153FF"/>
<path d="M7.99646 6.97014C9.29524 6.97014 10.445 5.86046 10.445 4.44519C10.445 3.02991 9.29524 2 7.99646 2C6.70477 2 5.555 3.05648 5.555 4.45848C5.555 5.86046 6.70477 6.97014 7.99646 6.97014ZM4.36267 12H11.6302C12.6806 12 13 11.721 13 11.2293C13 9.79403 11.0908 7.81395 7.99646 7.81395C4.90915 7.81395 3 9.79403 3 11.2293C3 11.721 3.31228 12 4.36267 12Z" fill="#7153FF"/>
</svg>
