<svg width="16" height="18" viewBox="0 0 16 18" fill="none" xmlns="http://www.w3.org/2000/svg">
<path d="M4.86261 18H13.4917C15.1639 18 16 17.1767 16 15.5141V5.91084C16 4.2562 15.1639 3.42492 13.4917 3.42492H5.72308L7.05439 4.69955H13.4186C14.2628 4.69955 14.6931 5.13498 14.6931 5.92667V15.4983C14.6931 16.29 14.2628 16.7254 13.4267 16.7254H4.92755C4.09143 16.7254 3.65308 16.29 3.65308 15.4983V9.84556H2.34614V15.5141C2.34614 17.1767 3.19037 18 4.86261 18ZM6.09649 8.09594H12.0711C12.3552 8.09594 12.5744 7.88219 12.5744 7.60506C12.5744 7.33591 12.3552 7.12216 12.0711 7.12216H6.09649C5.79614 7.12216 5.58508 7.33591 5.58508 7.60506C5.58508 7.88219 5.79614 8.09594 6.09649 8.09594ZM6.09649 11.1993H12.0711C12.3552 11.1993 12.5744 10.9777 12.5744 10.7006C12.5744 10.4314 12.3552 10.2256 12.0711 10.2256H6.09649C5.79614 10.2256 5.58508 10.4314 5.58508 10.7006C5.58508 10.9777 5.79614 11.1993 6.09649 11.1993ZM6.09649 14.2949H12.0711C12.3552 14.2949 12.5744 14.0891 12.5744 13.8199C12.5744 13.5428 12.3552 13.3211 12.0711 13.3211H6.09649C5.79614 13.3211 5.58508 13.5428 5.58508 13.8199C5.58508 14.0891 5.79614 14.2949 6.09649 14.2949ZM0.00013021 6.63128C-0.00798746 6.93212 0.365425 7.03508 0.568366 6.83713L1.81037 5.62583L3.19849 8.96676C3.26343 9.11721 3.42578 9.18849 3.5719 9.13302L4.38366 8.81638C4.52166 8.75301 4.57849 8.58675 4.50543 8.43636L3.05237 5.15081L4.79767 5.07956C5.10613 5.06372 5.26037 4.77872 5.04119 4.54913L0.600837 0.0998019C0.397896 -0.0981219 0.0813065 0.0127153 0.0731893 0.305642L0.00013021 6.63128Z" fill="#7153FF"/>
</svg>
