<svg width="16" height="23" viewBox="0 0 16 23" fill="none" xmlns="http://www.w3.org/2000/svg">
<g id="Group 4831">
<g id="Group 4832">
<path id="Vector" d="M4.41293 22.4544C6.42193 22.4544 8.05242 20.8141 8.05242 18.7929V15.1313H4.41293C2.40393 15.1313 0.773438 16.7717 0.773438 18.7929C0.773438 20.8141 2.40393 22.4544 4.41293 22.4544Z" fill="#0ACF83"/>
<path id="Vector_2" d="M0.773438 11.4696C0.773438 9.44847 2.40393 7.80811 4.41293 7.80811H8.05242V15.1312H4.41293C2.40393 15.1312 0.773438 13.4908 0.773438 11.4696Z" fill="#A259FF"/>
<path id="Vector_3" d="M0.773438 4.14665C0.773438 2.12548 2.40393 0.485107 4.41293 0.485107H8.05242V7.80818H4.41293C2.40393 7.80818 0.773438 6.16781 0.773438 4.14665Z" fill="#F24E1E"/>
<path id="Vector_4" d="M8.05225 0.485107H11.6917C13.7007 0.485107 15.3312 2.12548 15.3312 4.14665C15.3312 6.16781 13.7007 7.80818 11.6917 7.80818H8.05225V0.485107Z" fill="#FF7262"/>
<path id="Vector_5" d="M15.3312 11.4696C15.3312 13.4908 13.7007 15.1312 11.6917 15.1312C9.68274 15.1312 8.05225 13.4908 8.05225 11.4696C8.05225 9.44847 9.68274 7.80811 11.6917 7.80811C13.7007 7.80811 15.3312 9.44847 15.3312 11.4696Z" fill="#1ABCFE"/>
</g>
</g>
</svg>
