<svg width="30" height="44" viewBox="0 0 30 44" fill="none" xmlns="http://www.w3.org/2000/svg">
<circle cx="22.5" cy="22.5" r="7.5" fill="#2BBDFB"/>
<path fill-rule="evenodd" clip-rule="evenodd" d="M23 14.9836C26.909 14.7263 30 11.4741 30 7.5C30 3.52588 26.909 0.273695 23 0.0164023V0H22.5H15V7.5V15H22.5H23V14.9836Z" fill="#FD7366"/>
<path fill-rule="evenodd" clip-rule="evenodd" d="M7 29.9836C3.09098 29.7263 0 26.4741 0 22.5C0 18.5259 3.09098 15.2737 7 15.0164V15H7.5H15V22.5V30H7.5H7V29.9836Z" fill="#A160FB"/>
<path fill-rule="evenodd" clip-rule="evenodd" d="M7 14.9836C3.09098 14.7263 0 11.4741 0 7.5C0 3.52588 3.09098 0.273695 7 0.0164023V0H7.5H15V7.5V15H7.5H7V14.9836Z" fill="#EF4F2B"/>
<path fill-rule="evenodd" clip-rule="evenodd" d="M7.5 44C11.5527 44 14.8546 40.7856 14.9953 36.7672L15.2082 36.962L15.0569 29.7137L11.475 30.1388C10.3226 29.4172 8.95999 29 7.5 29C3.35786 29 0 32.3579 0 36.5C0 40.6421 3.35786 44 7.5 44Z" fill="#24CE85"/>
</svg>
