<svg width="14" height="21" viewBox="0 0 14 21" fill="none" xmlns="http://www.w3.org/2000/svg">
<path d="M7.4755 21C10.7728 21 12.9788 18.6946 12.9788 14.8956V13.126C12.9788 11.2509 12.1292 10.155 10.6793 10.1388C10.5 9.54616 10.0323 9.1809 9.37752 9.1809C9.14365 9.1809 8.91755 9.22149 8.69931 9.30268C8.49662 8.64517 7.98217 8.24736 7.30402 8.24736C7.12469 8.24736 6.93764 8.27174 6.75052 8.32854V5.62543C6.75052 4.60263 6.09576 3.92076 5.17594 3.92076C4.24833 3.92076 3.59353 4.60263 3.59353 5.62543V12.4035C3.59353 12.4441 3.57015 12.4766 3.53117 12.4766C3.5 12.4766 3.47661 12.4523 3.46881 12.4198L2.94655 11.121C2.68931 10.4878 2.22939 10.1469 1.67594 10.1469C0.919819 10.1469 0.249443 10.6502 0.249443 11.5431C0.249443 11.7866 0.296213 12.1113 0.389755 12.3954L1.76169 16.4136C2.79844 19.4576 4.72382 21 7.4755 21ZM7.51448 19.8798C5.33184 19.8798 3.66369 18.8326 2.71269 16.0646L1.34075 12.0545C1.29398 11.9328 1.2706 11.8272 1.2706 11.6892C1.2706 11.4051 1.47327 11.1697 1.78507 11.1697C2.05011 11.1697 2.20601 11.3321 2.32294 11.608L3.38307 14.0758C3.55456 14.4816 3.79621 14.6116 4.06904 14.6116C4.39643 14.6116 4.63029 14.3436 4.63029 13.9703V5.55237C4.63029 5.21144 4.85634 4.96792 5.17594 4.96792C5.49554 4.96792 5.7138 5.21144 5.7138 5.55237V11.5593C5.7138 11.8435 5.94766 12.0626 6.22048 12.0626C6.48552 12.0626 6.70376 11.8435 6.70376 11.5593V9.40007C6.83627 9.33517 7.0156 9.29457 7.17145 9.29457C7.56125 9.29457 7.79512 9.55433 7.79512 9.98457V11.8678C7.79512 12.1681 8.02894 12.3711 8.29401 12.3711C8.55124 12.3711 8.78505 12.1681 8.78505 11.8678V10.3336C8.91755 10.2686 9.09688 10.228 9.24495 10.228C9.64253 10.228 9.86856 10.4959 9.86856 10.918V12.1844C9.86856 12.4847 10.1102 12.6796 10.3753 12.6796C10.6325 12.6796 10.8585 12.4847 10.8585 12.1844V11.2509C11.5523 11.2509 11.9498 11.9977 11.9498 13.2884V14.7658C11.9498 18.029 10.2661 19.8798 7.51448 19.8798ZM1.20045 6.23425C1.89421 6.23425 2.42427 5.66603 2.42427 4.9598C2.42427 4.26169 1.89421 3.69347 1.20045 3.69347C0.537861 3.69347 0 4.26169 0 4.9598C0 5.66603 0.537861 6.23425 1.20045 6.23425ZM5.17594 2.54078C5.85411 2.54078 6.39977 1.97256 6.39977 1.26633C6.39977 0.576343 5.85411 0 5.17594 0C4.51336 0 3.9599 0.576343 3.9599 1.26633C3.9599 1.97256 4.51336 2.54078 5.17594 2.54078ZM9.19041 6.23425C9.86856 6.23425 10.4142 5.66603 10.4142 4.9598C10.4142 4.26169 9.86856 3.69347 9.19041 3.69347C8.52004 3.69347 7.97439 4.26169 7.97439 4.9598C7.97439 5.66603 8.52004 6.23425 9.19041 6.23425ZM12.7761 6.23425C13.4544 6.23425 14 5.66603 14 4.9598C14 4.26169 13.4544 3.69347 12.7761 3.69347C12.1135 3.69347 11.5679 4.26169 11.5679 4.9598C11.5679 5.66603 12.1135 6.23425 12.7761 6.23425ZM12.7761 2.54078C13.4544 2.54078 14 1.97256 14 1.26633C14 0.576343 13.4544 0 12.7761 0C12.1135 0 11.5679 0.576343 11.5679 1.26633C11.5679 1.97256 12.1135 2.54078 12.7761 2.54078Z" fill="#7153FF"/>
</svg>
