<svg width="16" height="16" viewBox="0 0 16 16" fill="none" xmlns="http://www.w3.org/2000/svg">
<path d="M4.32104 9.62094C4.32104 11.8432 5.7527 13.1939 7.79172 13.1939C9.32757 13.1939 10.3774 12.5751 11.0802 11.1285C11.462 10.3791 11.757 9.4815 12.0694 8.44442C12.1996 8.01741 12.3818 7.48586 12.3818 7.25057C12.3818 6.97168 12.1735 6.77996 11.8872 6.77996C11.5575 6.77996 11.3666 6.98039 11.1323 7.45968L10.4295 8.94987C10.3601 9.10678 10.2906 9.15906 10.2126 9.15906C10.1084 9.15906 10.0477 9.0893 10.0477 8.94117V3.63399C10.0477 3.32897 9.79611 3.07625 9.49239 3.07625C9.18874 3.07625 8.94574 3.32897 8.94574 3.63399V7.3987C8.80691 7.36382 8.66808 7.31154 8.52059 7.28537V2.89324C8.52059 2.59695 8.27766 2.33551 7.96527 2.33551C7.66163 2.33551 7.40996 2.59695 7.40996 2.89324V7.22439C7.26246 7.24179 7.11496 7.25927 6.96746 7.28537V3.32897C6.96746 3.02397 6.71583 2.77996 6.41214 2.77996C6.10845 2.77996 5.85683 3.02397 5.85683 3.32897V7.64269C5.70065 7.71244 5.57049 7.79952 5.43167 7.87798V4.91503C5.43167 4.61002 5.18004 4.34858 4.88503 4.34858C4.57266 4.34858 4.32104 4.61002 4.32104 4.91503V9.62094ZM14.9848 1.02832C14.0998 0.139434 12.8503 0 11.3666 0H4.60737C3.14967 0 1.90022 0.139434 1.01518 1.02832C0.130152 1.91721 0 3.1634 0 4.62745V11.3464C0 12.8366 0.130152 14.0828 1.01518 14.9717C1.90022 15.8606 3.14967 16 4.62472 16H11.3666C12.8503 16 14.0998 15.8606 14.9848 14.9717C15.8698 14.0828 16 12.8366 16 11.3464V4.64488C16 3.15469 15.8698 1.91721 14.9848 1.02832ZM14.6031 4.40959V11.5904C14.6031 12.488 14.4902 13.4204 13.961 13.9434C13.4403 14.4749 12.5032 14.597 11.6095 14.597H4.39045C3.49674 14.597 2.55965 14.4749 2.03037 13.9434C1.50976 13.4204 1.39696 12.488 1.39696 11.5904V4.43573C1.39696 3.51198 1.50976 2.57952 2.03037 2.04793C2.55965 1.52505 3.50542 1.40305 4.41648 1.40305H11.6095C12.5032 1.40305 13.4403 1.52505 13.961 2.05664C14.4902 2.57952 14.6031 3.51198 14.6031 4.40959Z" fill="#7153FF"/>
</svg>
