<svg width="116" height="90" viewBox="0 0 116 90" fill="none" xmlns="http://www.w3.org/2000/svg">
<g id="Group 4913">
<path id="Vector" d="M35.6271 89.905H87.5638C91.7001 89.905 94.1912 87.9601 94.1912 84.7338C94.1912 74.6284 81.6888 60.6801 61.6191 60.6801C41.5025 60.6801 28.9999 74.6284 28.9999 84.7338C28.9999 87.9601 31.491 89.905 35.6271 89.905ZM61.6191 53.7058C69.8914 53.7058 77.0827 46.21 77.0827 36.4365C77.0827 26.8055 69.8914 19.6416 61.6191 19.6416C53.3468 19.6416 46.1085 26.9479 46.1085 36.5314C46.1085 46.21 53.3468 53.7058 61.6191 53.7058Z" fill="#7153FF"/>
<path id="Vector_2" d="M6.72122 70.5956H16.2155C20.6807 70.5956 22.9368 68.3657 22.9368 63.9063V54.0854C22.9368 49.673 20.6807 47.4435 16.2155 47.4435H6.72122C2.25608 47.4435 0 49.6256 0 54.0854V63.9063C0 68.3657 2.25608 70.5956 6.72122 70.5956ZM19.2237 36.3415H39.7163C39.7633 24.1012 48.7405 14.0907 60.1151 13.2367V6.64204C60.1151 2.22983 57.859 0 53.3469 0H19.2237C14.7585 0 12.5024 2.22983 12.5024 6.64204V29.6995C12.5024 34.1591 14.7585 36.3415 19.2237 36.3415ZM95.366 61.5812H109.232C113.744 61.5812 116 59.3517 116 54.9393V27.2799C116 22.8677 113.744 20.6378 109.232 20.6378H95.366C90.9012 20.6378 88.6451 22.8677 88.6451 27.2799V54.9393C88.6451 59.3517 90.9012 61.5812 95.366 61.5812Z" fill="#7153FF"/>
</g>
</svg>
