<svg width="15" height="13" viewBox="0 0 15 13" fill="none" xmlns="http://www.w3.org/2000/svg">
<path d="M4.87352 11.8031H12.274C13.2357 11.8031 13.7441 11.3167 13.7441 10.3495V9.99575L11.1852 7.57498C10.9696 7.376 10.7043 7.27653 10.4335 7.27653C10.1627 7.27653 9.91955 7.36496 9.68742 7.56946L7.45455 9.54808L6.57024 8.74669C6.35471 8.55323 6.13361 8.4648 5.89596 8.4648C5.68042 8.4648 5.47593 8.55323 5.26039 8.73561L3.39782 10.355C3.39782 11.3167 3.91181 11.8031 4.87352 11.8031ZM7.05663 7.69657C7.70328 7.69657 8.2283 7.16047 8.2283 6.51382C8.2283 5.87825 7.70328 5.34211 7.05663 5.34211C6.40998 5.34211 5.89044 5.87825 5.89044 6.51382C5.89044 7.16047 6.40998 7.69657 7.05663 7.69657ZM0.999146 8.96774C1.20364 10.0897 1.86134 10.5485 3.00541 10.3495L3.69074 10.2334V9.33255L2.86723 9.47069C2.32007 9.5702 1.96635 9.33255 1.86687 8.76881L0.977041 3.72827C0.877556 3.159 1.12626 2.81081 1.67343 2.71685L9.01865 1.42356C9.55475 1.3296 9.91404 1.56173 10.019 2.131L10.3064 3.73933H11.2073L10.8812 1.93204C10.6823 0.810077 10.019 0.345818 8.88046 0.544787L1.50209 1.84361C0.363555 2.0481 -0.10623 2.71133 0.0927377 3.83328L0.999146 8.96774ZM4.85691 12.096H12.4066C13.5562 12.096 14.1366 11.5212 14.1366 10.3826V5.17079C14.1366 4.03225 13.5562 3.45745 12.4066 3.45745H4.85691C3.69627 3.45745 3.12147 4.03225 3.12147 5.17079V10.3826C3.12147 11.5267 3.69627 12.096 4.85691 12.096ZM4.86795 11.2061C4.31528 11.2061 4.0113 10.9132 4.0113 10.3384V5.22052C4.0113 4.64573 4.31528 4.34728 4.86795 4.34728H12.3901C12.9372 4.34728 13.2467 4.64573 13.2467 5.22052V10.3384C13.2467 10.9132 12.9372 11.2061 12.3901 11.2061H4.86795Z" fill="#8A8886"/>
</svg>
