<svg width="8" height="7" viewBox="0 0 8 7" fill="none" xmlns="http://www.w3.org/2000/svg">
<g id="Group 554">
<g id="Group-2">
<path id="Instagram-icon" d="M4.52977 0.000976562C5.14996 0.00221355 5.28373 0.00746559 5.60129 0.0220102C5.97408 0.0390843 6.22877 0.0974209 6.45073 0.184214C6.68123 0.273853 6.87616 0.393372 7.07109 0.588301C7.26459 0.781808 7.38411 0.97816 7.47375 1.20724C7.55912 1.4292 7.61888 1.68389 7.63596 2.05667C7.65176 2.40184 7.6566 2.52988 7.65723 3.30146V3.69741C7.6566 4.46899 7.65176 4.59703 7.63596 4.9422C7.61888 5.31498 7.56055 5.56967 7.47375 5.79163C7.38411 6.02213 7.2646 6.21706 7.06967 6.41199C6.87474 6.60692 6.67981 6.72644 6.44931 6.81608C6.22734 6.90145 5.97265 6.96121 5.59987 6.97828C5.22708 6.99536 5.10757 6.99963 4.15711 6.99963L4.05487 6.99961C3.19745 6.99929 3.07332 6.99473 2.71435 6.97828C2.34156 6.96121 2.08687 6.90287 1.86491 6.81608C1.63441 6.72644 1.43948 6.60692 1.24455 6.41199C1.04962 6.21706 0.930103 6.02213 0.840464 5.79163C0.755094 5.56967 0.695333 5.31498 0.678259 4.9422C0.663714 4.62464 0.658464 4.49087 0.657227 3.87068V3.1282C0.658464 2.50801 0.663714 2.37423 0.678259 2.05667C0.695333 1.68389 0.753671 1.4292 0.840464 1.20724C0.930103 0.97816 1.04962 0.781808 1.24455 0.588301C1.43948 0.393372 1.63441 0.273853 1.86491 0.184214C2.08687 0.0974209 2.34156 0.0376615 2.71577 0.0220102C3.03333 0.00746559 3.1671 0.00221355 3.78729 0.000976562H4.52977ZM4.25764 0.630999H4.05658C3.21373 0.631217 3.09767 0.634465 2.7428 0.650907C2.40132 0.666558 2.21635 0.723471 2.09256 0.771848C1.92894 0.835876 1.81226 0.911287 1.6899 1.03365C1.56754 1.15602 1.49212 1.27269 1.4281 1.43631C1.37972 1.5601 1.32281 1.74507 1.30716 2.08655C1.2915 2.45507 1.28724 2.56605 1.28724 3.50086C1.28724 4.43567 1.29008 4.54665 1.30716 4.91516C1.32281 5.25665 1.37972 5.44161 1.4281 5.5654C1.49212 5.72903 1.56754 5.8457 1.6899 5.96807C1.81226 6.09043 1.92894 6.16584 2.09256 6.22987C2.21635 6.27825 2.40132 6.33516 2.7428 6.35081C3.11132 6.36646 3.2223 6.37073 4.15711 6.37073L4.25764 6.37072C5.10049 6.3705 5.21655 6.36725 5.57141 6.35081C5.9129 6.33516 6.09786 6.27825 6.22165 6.22987C6.38528 6.16584 6.50195 6.09043 6.62431 5.96807C6.74668 5.8457 6.82209 5.72903 6.88612 5.5654C6.93449 5.44161 6.99141 5.25665 7.00706 4.91516C7.02271 4.54665 7.02698 4.43567 7.02698 3.50086L7.02697 3.40033C7.02675 2.55748 7.0235 2.44142 7.00706 2.08655C6.99141 1.74507 6.93449 1.5601 6.88612 1.43631C6.82209 1.27269 6.74668 1.15602 6.62431 1.03365C6.50195 0.911287 6.38528 0.835876 6.22165 0.771848C6.09786 0.723471 5.9129 0.666558 5.57141 0.650907C5.2029 0.633832 5.09192 0.630987 4.15711 0.630987L4.25764 0.630999ZM4.15711 1.70381C5.15025 1.70381 5.95416 2.50914 5.95416 3.50086C5.95416 4.49258 5.14883 5.29791 4.15711 5.29791C3.16539 5.29791 2.36006 4.494 2.36006 3.50086C2.36006 2.50771 3.16396 1.70381 4.15711 1.70381ZM4.15711 2.33413C3.51256 2.33413 2.99038 2.85631 2.99038 3.50086C2.99038 4.14541 3.51256 4.66759 4.15711 4.66759C4.80166 4.66759 5.32384 4.14541 5.32384 3.50086C5.32384 2.85631 4.80166 2.33413 4.15711 2.33413ZM6.02672 1.21293C6.25854 1.21293 6.44646 1.40085 6.44646 1.63267C6.44646 1.86448 6.25854 2.05241 6.02672 2.05241C5.79491 2.05241 5.60698 1.86448 5.60698 1.63267C5.60698 1.40085 5.79491 1.21293 6.02672 1.21293Z" fill="#FD94D3"/>
</g>
</g>
</svg>
