<svg width="12" height="15" viewBox="0 0 12 15" fill="none" xmlns="http://www.w3.org/2000/svg">
<path d="M2.29636 14.7845H9.54609C10.6686 14.7845 11.3271 14.1322 11.3271 12.8403V5.72858C11.3271 4.43667 10.6624 3.78445 9.35793 3.78445H2.29636C0.985644 3.78445 0.327148 4.4304 0.327148 5.72858V12.8403C0.327148 14.1322 0.985644 14.7845 2.29636 14.7845ZM2.3089 13.7747C1.68177 13.7747 1.33684 13.4361 1.33684 12.7839V5.77873C1.33684 5.13279 1.68177 4.79414 2.3089 4.79414H9.33909C9.95998 4.79414 10.3175 5.13279 10.3175 5.77873V12.7839C10.3175 13.4361 9.95998 13.7747 9.52725 13.7747H2.3089ZM1.69431 2.77476H9.95372C9.85964 2.20406 9.58997 1.89049 8.96282 1.89049H2.68519C2.05805 1.89049 1.78838 2.20406 1.69431 2.77476ZM2.78553 1.03759H8.86874C8.83112 0.504517 8.52383 0.228577 7.94688 0.228577H3.70115C3.12418 0.228577 2.82315 0.504517 2.78553 1.03759ZM3.23079 13.2166C3.3625 13.2166 3.46284 13.1476 3.57572 13.041L4.67948 11.9498C4.7861 11.8557 4.80491 11.8243 4.86135 11.6864L5.35052 10.3945C5.42577 10.2126 5.58883 10.1624 5.78324 10.2753L6.71768 10.8209L5.85222 11.5609C5.76445 11.6362 5.708 11.7365 5.708 11.8494C5.708 12.025 5.8397 12.1881 6.03412 12.1881C6.15951 12.1881 6.25359 12.1379 6.36651 12.0439L7.55177 11.0341C7.65212 10.9464 7.68974 10.8585 7.68974 10.7519C7.68974 10.6453 7.62702 10.5513 7.48279 10.4509L6.22223 9.62309L6.46685 8.75763C6.50447 8.6385 6.61733 8.61966 6.69884 8.73258L7.03123 9.22172C7.12531 9.35968 7.29463 9.3973 7.44517 9.33464L8.60539 8.82035C8.80608 8.73258 8.88758 8.55694 8.7935 8.38136C8.71199 8.20577 8.54893 8.14305 8.33567 8.23087L7.44517 8.61967L6.83054 7.74795C6.52952 7.32148 6.13446 7.1459 5.5512 7.18978L4.16523 7.29643C3.97709 7.30896 3.83285 7.44066 3.80149 7.6476L3.63843 8.90817C3.60708 9.12764 3.71369 9.2907 3.94573 9.30327C4.1276 9.32206 4.27184 9.21546 4.3032 8.98967L4.44117 7.99251L4.97424 7.96121C5.08085 7.95489 5.14984 8.02387 5.11848 8.13679L4.18404 11.4418L3.01757 12.5957C2.92977 12.6835 2.89214 12.7713 2.89214 12.8717C2.89214 13.0473 3.03011 13.2166 3.23079 13.2166ZM6.64869 7.05181C7.07516 7.05181 7.42633 6.70064 7.42633 6.28675C7.42633 5.85402 7.07516 5.50907 6.64869 5.50907C6.21597 5.50907 5.87732 5.85402 5.87732 6.28675C5.87732 6.70064 6.21597 7.05181 6.64869 7.05181Z" fill="#8A8886"/>
</svg>
