<svg width="15" height="15" viewBox="0 0 15 15" fill="none" xmlns="http://www.w3.org/2000/svg">
<path d="M3.89124 11.4558L10.2054 12.5612C11.3108 12.7579 11.9706 12.0635 11.9706 10.8249V4.18088C11.9706 2.87869 11.3571 2.23628 10.2054 2.43884L3.89124 3.55005C2.73953 3.75261 2.12605 4.31399 2.12605 5.2863V9.71375C2.12605 10.6802 2.73953 11.2532 3.89124 11.4558ZM3.84494 10.5819C3.29513 10.4893 2.99997 10.2115 2.99997 9.7253V5.27472C2.99997 4.78857 3.29513 4.51077 3.84494 4.41817L10.2517 3.31276C10.8015 3.22016 11.0967 3.52689 11.0967 4.16931V10.8365C11.0967 11.45 10.7842 11.7799 10.2517 11.6931L3.84494 10.5819ZM7.05123 14.419C7.31747 14.419 7.48529 14.2454 7.48529 13.9618V1.04406C7.48529 0.75468 7.31747 0.581055 7.05123 0.581055C6.77343 0.581055 6.61139 0.75468 6.61139 1.04406V13.9618C6.61139 14.2454 6.77343 14.419 7.05123 14.419ZM0.51134 7.93696H13.5853C13.8747 7.93696 14.0483 7.76914 14.0483 7.5029C14.0483 7.2251 13.8747 7.06306 13.5853 7.06306H0.51134C0.221965 7.06306 0.0483398 7.2251 0.0483398 7.5029C0.0483398 7.76914 0.221965 7.93696 0.51134 7.93696Z" fill="#8A8886"/>
</svg>
