<svg width="13" height="13" viewBox="0 0 13 13" fill="none" xmlns="http://www.w3.org/2000/svg">
<path d="M0.773861 8.36723C0.934301 8.31742 1.01176 8.15143 0.9675 7.96334C0.829187 7.40456 0.7462 6.81258 0.773861 6.03804C0.779394 5.83334 0.668742 5.72268 0.502768 5.71163C0.287001 5.69501 0.170818 5.82782 0.154221 5.99928C0.104429 6.62449 0.154221 7.37137 0.369988 8.14038C0.425313 8.32847 0.602353 8.42251 0.773861 8.36723ZM0.530431 5.06984C0.690874 5.1307 0.895575 5.05878 0.973028 4.84854C1.86376 2.35892 3.99377 1.11964 6.15696 1.11964C7.14178 1.11964 7.91632 1.31881 8.57467 1.69502C8.7628 1.80567 8.97303 1.80567 9.05603 1.6231C9.14455 1.42946 9.04493 1.30775 8.90665 1.21923C8.06569 0.693637 7.21368 0.5 6.15696 0.5C3.65629 0.5 1.38797 1.83333 0.369988 4.54426C0.264871 4.82088 0.369988 5.01452 0.530431 5.06984ZM12.038 7.07814C12.2151 7.07814 12.3423 6.93429 12.3257 6.74068C12.0768 4.48893 11.3354 3.06708 10.0574 1.94951C9.89694 1.80567 9.70333 1.84993 9.60924 1.96058C9.50415 2.07676 9.49306 2.25933 9.65905 2.40871C10.749 3.42669 11.5401 4.74342 11.7282 6.75173C11.7503 6.93429 11.861 7.07814 12.038 7.07814ZM1.41563 9.97163C1.52075 10.1155 1.73098 10.1542 1.88589 10.0214C2.28423 9.68393 2.4834 9.14177 2.4834 8.57746C2.4834 7.81397 2.15145 7.4267 2.15145 6.47507C2.15145 4.30636 3.95505 2.50276 6.12378 2.50276C8.74066 2.50276 10.4281 4.64384 10.4336 7.80292C10.4336 9.03663 10.2289 9.91078 10.0242 10.4142C9.95227 10.5857 10.0187 10.7683 10.1625 10.8458C10.3174 10.9122 10.5332 10.8568 10.5996 10.6743C10.8153 10.0878 11.0532 9.12515 11.0532 7.79735C11.0532 4.27316 9.11131 1.88313 6.12378 1.88313C3.61203 1.88313 1.53181 3.96888 1.53181 6.47507C1.53181 7.38241 1.87483 7.99653 1.88036 8.57193C1.88036 8.94811 1.74205 9.30771 1.48202 9.53456C1.34924 9.64522 1.32711 9.8444 1.41563 9.97163ZM2.7213 11.0007C3.13071 10.7905 3.68949 10.0712 3.8444 9.50137C3.88866 9.34647 3.81673 9.15834 3.64523 9.10305C3.49032 9.04772 3.32434 9.14177 3.26349 9.31881C3.11411 9.80564 2.85408 10.1708 2.44467 10.4474C2.24551 10.5857 2.21784 10.7573 2.2787 10.8845C2.34509 11.0228 2.52213 11.1003 2.7213 11.0007ZM3.90525 8.00205C3.76694 7.62588 3.54011 7.15004 3.54011 6.50831C3.54011 5.03665 4.68534 3.89142 6.15696 3.89142C6.72127 3.89142 6.89831 3.95228 7.39072 4.19018C7.56224 4.26763 7.71713 4.21784 7.77799 4.09612C7.86099 3.94121 7.81675 3.75311 7.62861 3.64246C7.26349 3.42669 6.7047 3.26625 6.15696 3.26625C4.34232 3.26625 2.91494 4.69363 2.91494 6.50831C2.91494 7.20537 3.10304 7.76968 3.29668 8.23995C3.37413 8.42251 3.54011 8.51108 3.73928 8.42808C3.90525 8.36166 3.96611 8.18462 3.90525 8.00205ZM8.25935 4.93153C8.79599 5.71163 9.06155 6.79044 9.06155 8.0961C9.06155 9.49032 8.67428 10.807 8.07121 11.5595C7.97165 11.6922 7.96055 11.8804 8.08231 12.0021C8.21507 12.1238 8.44191 12.1183 8.55257 11.9689C9.2275 11.056 9.6701 9.60651 9.6701 8.074C9.6701 6.39765 9.31049 5.40179 8.80704 4.59958C8.69085 4.42254 8.49724 4.36722 8.3423 4.4502C8.18188 4.53872 8.13207 4.74342 8.25935 4.93153ZM3.88313 11.731C4.79045 11.0007 5.28838 9.83883 5.28286 8.54979C5.27734 7.57607 4.92878 6.973 4.92878 6.44188C4.92878 5.74482 5.42114 5.28008 6.14039 5.28008C7.24687 5.28008 7.60647 6.5415 7.63971 8.03524C7.68947 9.7614 7.06431 11.222 6.24548 11.9412C6.11273 12.0519 6.08506 12.2233 6.17358 12.3617C6.27867 12.511 6.49447 12.5387 6.63832 12.406C7.50138 11.6203 8.23168 9.89416 8.22059 7.99101C8.21507 6.13209 7.68947 4.66044 6.14039 4.66044C5.11134 4.66044 4.32019 5.34646 4.32019 6.3866C4.32019 7.01176 4.65214 7.78078 4.65767 8.54979C4.66321 9.64522 4.2538 10.63 3.49585 11.2441C3.34647 11.3658 3.32434 11.5429 3.41839 11.6812C3.53458 11.8416 3.73375 11.8582 3.88313 11.731ZM5.17772 12.1736C5.6148 11.8582 6.15696 11.1334 6.36719 10.4253C6.40595 10.3036 6.37829 10.0989 6.20125 10.038C6.01311 9.97163 5.85269 10.0657 5.80288 10.2095C5.52075 10.9509 5.1722 11.388 4.80152 11.6757C4.66321 11.7863 4.62448 11.9689 4.71853 12.1127C4.80705 12.2676 5.02282 12.2898 5.17772 12.1736ZM6.68256 9.13624C6.83746 8.38932 6.7766 7.43222 6.50552 6.60235C6.43362 6.39765 6.27315 6.30913 6.10163 6.36446C5.94121 6.41979 5.84164 6.56916 5.9025 6.76277C6.15696 7.56498 6.20125 8.35613 6.07402 9.05325C6.04078 9.21924 6.1072 9.37966 6.30082 9.40733C6.47786 9.44051 6.64385 9.33538 6.68256 9.13624Z" fill="#8A8886"/>
</svg>
