<svg width="16" height="16" viewBox="0 0 16 16" fill="none" xmlns="http://www.w3.org/2000/svg">
<path d="M0.836555 10.4972C1.04713 10.4308 1.14879 10.2093 1.0907 9.95832C0.90917 9.21274 0.800251 8.42286 0.836555 7.3894C0.843817 7.11626 0.698589 6.96861 0.480752 6.95387C0.197563 6.93169 0.0450756 7.10889 0.0232917 7.33768C-0.0420598 8.1719 0.0232917 9.16845 0.306482 10.1945C0.379094 10.4455 0.611455 10.571 0.836555 10.4972ZM0.517059 6.09753C0.727637 6.17873 0.996302 6.08277 1.09796 5.80225C2.26703 2.48035 5.06262 0.826784 7.90176 0.826784C9.19431 0.826784 10.2109 1.09254 11.0749 1.59451C11.3219 1.74215 11.5978 1.74215 11.7067 1.49855C11.8229 1.24018 11.6922 1.07777 11.5107 0.959661C10.4069 0.25837 9.28868 0 7.90176 0C4.61968 0 1.64256 1.77906 0.306482 5.39624C0.168518 5.76534 0.306482 6.02371 0.517059 6.09753ZM15.6205 8.7772C15.8529 8.7772 16.0199 8.58526 15.9981 8.32693C15.6714 5.32242 14.6984 3.42525 13.021 1.93408C12.8104 1.74215 12.5563 1.80121 12.4328 1.94885C12.2949 2.10387 12.2803 2.34747 12.4982 2.54679C13.9286 3.90508 14.967 5.66199 15.2139 8.34167C15.2429 8.58526 15.3882 8.7772 15.6205 8.7772ZM1.67886 12.638C1.81683 12.8299 2.09275 12.8816 2.29607 12.7044C2.81889 12.2541 3.08029 11.5307 3.08029 10.7777C3.08029 9.75901 2.64462 9.24228 2.64462 7.97253C2.64462 5.07882 5.01179 2.67229 7.8582 2.67229C11.2928 2.67229 13.5075 5.52911 13.5147 9.74427C13.5147 11.3904 13.2461 12.5568 12.9774 13.2285C12.883 13.4574 12.9701 13.701 13.1589 13.8044C13.3622 13.8929 13.6455 13.8191 13.7326 13.5755C14.0158 12.793 14.328 11.5085 14.328 9.73684C14.328 5.03452 11.7793 1.8455 7.8582 1.8455C4.56159 1.8455 1.83135 4.62852 1.83135 7.97253C1.83135 9.18319 2.28155 10.0026 2.28881 10.7704C2.28881 11.2723 2.10728 11.7521 1.766 12.0548C1.59173 12.2024 1.56268 12.4682 1.67886 12.638ZM3.39253 14.011C3.92986 13.7305 4.66325 12.7708 4.86657 12.0105C4.92466 11.8038 4.83026 11.5528 4.60516 11.479C4.40185 11.4052 4.184 11.5307 4.10413 11.7669C3.90808 12.4165 3.5668 12.9038 3.02946 13.2728C2.76806 13.4574 2.73175 13.6862 2.81162 13.856C2.89876 14.0406 3.13112 14.1439 3.39253 14.011ZM4.94644 10.01C4.76491 9.50805 4.46719 8.87314 4.46719 8.01687C4.46719 6.05324 5.97028 4.52516 7.90176 4.52516C8.6424 4.52516 8.87476 4.60637 9.52104 4.9238C9.74615 5.02714 9.94945 4.9607 10.0293 4.7983C10.1383 4.5916 10.0802 4.34061 9.83327 4.19298C9.35405 3.90508 8.62066 3.691 7.90176 3.691C5.52008 3.691 3.64667 5.59555 3.64667 8.01687C3.64667 8.94697 3.89355 9.69992 4.1477 10.3274C4.24936 10.571 4.46719 10.6892 4.7286 10.5784C4.94644 10.4898 5.02632 10.2536 4.94644 10.01ZM10.6611 5.91298C11.3654 6.95387 11.714 8.39332 11.714 10.1355C11.714 11.9958 11.2057 13.7526 10.4142 14.7566C10.2835 14.9338 10.2689 15.1848 10.4287 15.3472C10.603 15.5096 10.9007 15.5022 11.0459 15.3029C11.9318 14.0849 12.5127 12.1508 12.5127 10.106C12.5127 7.86922 12.0407 6.54044 11.3799 5.47006C11.2274 5.23384 10.9733 5.16002 10.77 5.27075C10.5594 5.38886 10.494 5.66199 10.6611 5.91298ZM4.9174 14.9855C6.10824 14.011 6.76177 12.4608 6.75452 10.7408C6.74727 9.44159 6.2898 8.63692 6.2898 7.92824C6.2898 6.99815 6.93601 6.37805 7.88001 6.37805C9.33224 6.37805 9.80421 8.06116 9.84783 10.0543C9.91314 12.3575 9.09263 14.3063 8.01794 15.266C7.8437 15.4136 7.80739 15.6424 7.92357 15.827C8.0615 16.0263 8.34473 16.0632 8.53354 15.8861C9.66628 14.8378 10.6248 12.5346 10.6102 9.99524C10.603 7.51488 9.91314 5.55126 7.88001 5.55126C6.52941 5.55126 5.49104 6.46662 5.49104 7.85448C5.49104 8.68863 5.92671 9.71473 5.93397 10.7408C5.94124 12.2024 5.4039 13.5164 4.4091 14.3358C4.21305 14.4982 4.184 14.7345 4.30745 14.919C4.45994 15.1331 4.72134 15.1552 4.9174 14.9855ZM6.61653 15.576C7.19018 15.1552 7.90176 14.1882 8.17768 13.2433C8.22855 13.0809 8.19224 12.8077 7.95988 12.7266C7.71296 12.638 7.50241 12.7635 7.43704 12.9554C7.06675 13.9446 6.60928 14.5278 6.12277 14.9117C5.94124 15.0592 5.89041 15.3029 6.01385 15.4948C6.13003 15.7015 6.41323 15.7311 6.61653 15.576ZM8.59159 11.5233C8.79489 10.5267 8.71502 9.24965 8.35923 8.14236C8.26486 7.86922 8.05425 7.75111 7.82914 7.82493C7.61859 7.89876 7.48791 8.09807 7.56778 8.35641C7.90176 9.42679 7.95988 10.4824 7.79289 11.4126C7.74927 11.6341 7.83645 11.8481 8.09056 11.885C8.32292 11.9293 8.54078 11.789 8.59159 11.5233Z" fill="#7153FF"/>
</svg>
