<svg xmlns="http://www.w3.org/2000/svg" width="64" height="64" viewBox="0 0 64 64" fill="none">
    <rect width="63" height="63" rx="31.5" fill="#fefefe02"/>
    <path fill-rule="evenodd" clip-rule="evenodd" d="M20.344 35.8225C19.8437 35.3221 19.8437 34.5109 20.344 34.0105L30.594 23.7605C31.0944 23.2602 31.9056 23.2602 32.406 23.7605L42.656 34.0105C43.1563 34.5109 43.1563 35.3221 42.656 35.8225C42.1556 36.3228 41.3444 36.3228 40.844 35.8225L31.5 26.4785L22.156 35.8225C21.6556 36.3228 20.8444 36.3228 20.344 35.8225Z" fill="#7153ff"/>
    <path d="M63 31.5C63 48.897 48.897 63 31.5 63C14.103 63 0 48.897 0 31.5C0 14.103 14.103 0 31.5 0C48.897 0 63 14.103 63 31.5ZM1.06131 31.5C1.06131 48.3108 14.6892 61.9387 31.5 61.9387C48.3108 61.9387 61.9387 48.3108 61.9387 31.5C61.9387 14.6892 48.3108 1.06131 31.5 1.06131C14.6892 1.06131 1.06131 14.6892 1.06131 31.5Z" fill="#7153ff"/>
    <path d="M31.5781 0.0795912C37.8082 0.0795909 43.8984 1.92703 49.0786 5.3883C54.2587 8.84956 58.2962 13.7692 60.6803 19.5251C63.0645 25.2809 63.6883 31.6145 62.4729 37.7249C61.2574 43.8353 58.2573 49.4481 53.852 53.8535C49.4466 58.2588 43.8339 61.2589 37.7235 62.4743C31.6131 63.6898 25.2795 63.066 19.5236 60.6818C13.7677 58.2976 8.84809 54.2602 5.38683 49.0801C1.92557 43.8999 0.0781239 37.8097 0.0781236 31.5796L1.13943 31.5796C1.13943 37.5998 2.92463 43.4848 6.26928 48.4904C9.61392 53.496 14.3678 57.3974 19.9297 59.7013C25.4917 62.0051 31.6119 62.6079 37.5164 61.4334C43.4209 60.2589 48.8446 57.3599 53.1015 53.103C57.3585 48.8461 60.2575 43.4224 61.4319 37.5179C62.6064 31.6134 62.0036 25.4931 59.6998 19.9312C57.396 14.3693 53.4946 9.61539 48.489 6.27074C43.4833 2.92609 37.5983 1.1409 31.5781 1.1409L31.5781 0.0795912Z" fill="#7153ff"/>
</svg>