<svg width="28" height="24" viewBox="0 0 28 24" fill="none" xmlns="http://www.w3.org/2000/svg">
<path fill-rule="evenodd" clip-rule="evenodd" d="M1.91728 10.7001C9.4039 7.43828 14.3962 5.28789 16.894 4.24894C24.026 1.2825 25.508 0.767197 26.4739 0.750181C26.6863 0.746439 27.1614 0.799089 27.469 1.04876C27.7289 1.25958 27.8003 1.54436 27.8346 1.74424C27.8688 1.94412 27.9114 2.39945 27.8775 2.75523C27.491 6.81606 25.8187 16.6706 24.9679 21.2188C24.6079 23.1433 23.8991 23.7886 23.2128 23.8517C21.7215 23.989 20.589 22.8662 19.1446 21.9193C16.8843 20.4376 15.6073 19.5153 13.4133 18.0695C10.8778 16.3986 12.5215 15.4802 13.9665 13.9794C14.3447 13.5866 20.9156 7.60982 21.0428 7.06763C21.0587 6.99982 21.0735 6.74705 20.9233 6.61358C20.7731 6.48012 20.5515 6.52576 20.3916 6.56206C20.1649 6.61351 16.5541 9.00014 9.55907 13.722C8.53415 14.4258 7.6058 14.7687 6.77404 14.7507C5.85708 14.7309 4.09323 14.2322 2.78198 13.806C1.17369 13.2832 -0.104549 13.0068 0.00675659 12.1189C0.0647316 11.6565 0.701574 11.1835 1.91728 10.7001Z" fill="#7153FF"/>
</svg>
