<svg width="9" height="7" viewBox="0 0 9 7" fill="none" xmlns="http://www.w3.org/2000/svg">
<g id="Group 553">
<path id="Twitter" d="M3.17316 6.7508C6.19216 6.7508 7.84315 4.24962 7.84315 2.08081C7.84315 2.00975 7.84169 1.93905 7.83842 1.86862C8.15888 1.63697 8.43749 1.3478 8.65723 1.01879C8.36315 1.14945 8.04669 1.23743 7.71467 1.2771C8.05352 1.07393 8.31374 0.752373 8.43649 0.369129C8.1193 0.557202 7.76808 0.693867 7.3943 0.767568C7.09468 0.448562 6.66812 0.249023 6.19616 0.249023C5.28964 0.249023 4.55455 0.984121 4.55455 1.89019C4.55455 2.01903 4.56901 2.14423 4.59704 2.26442C3.23303 2.19591 2.02342 1.5427 1.21399 0.54965C1.07286 0.792135 0.99161 1.07402 0.99161 1.37455C0.99161 1.94396 1.28141 2.44667 1.72207 2.74084C1.45283 2.73256 1.19988 2.6585 0.97869 2.53548C0.978326 2.5423 0.978326 2.54922 0.978326 2.55641C0.978326 3.35137 1.54418 4.01505 2.29511 4.16545C2.15727 4.20303 2.01223 4.22323 1.86246 4.22323C1.75673 4.22323 1.65392 4.21267 1.55392 4.19366C1.76283 4.84568 2.36882 5.32028 3.08726 5.33365C2.52541 5.77395 1.8177 6.03627 1.04875 6.03627C0.916362 6.03627 0.785703 6.02872 0.657227 6.01352C1.38359 6.47902 2.24607 6.7508 3.17316 6.7508Z" fill="#1D9BF0"/>
</g>
</svg>
