<svg width="18" height="16" viewBox="0 0 18 16" fill="none" xmlns="http://www.w3.org/2000/svg">
<path d="M10.4101 15.4196C14.5548 15.4196 18 12.0407 18 7.95978C18 3.88616 14.5473 0.5 10.4026 0.5C6.53329 0.5 3.2964 3.44003 2.87226 7.14797C3.16246 7.08949 3.46755 7.06022 3.78007 7.06022C6.0496 7.06022 7.96941 8.64728 8.44564 10.6804C9.03349 10.5341 9.68828 10.4537 10.4026 10.4537C12.6499 10.4537 14.3762 11.2728 15.1054 12.1285C13.9892 13.3791 12.2555 14.1909 10.4026 14.1909C9.64364 14.1909 8.81767 14.0446 8.11075 13.7594C8.01405 14.03 7.75358 14.4396 7.43362 14.8053C8.35636 15.2075 9.35346 15.4196 10.4101 15.4196ZM10.4026 9.21039C8.96651 9.19579 7.85778 8.02562 7.85035 6.4532C7.83543 4.97587 8.97393 3.7472 10.4026 3.7472C11.8239 3.7472 12.9549 4.97587 12.9549 6.4532C12.9549 8.02562 11.8313 9.22505 10.4026 9.21039ZM3.78007 15.5C5.82636 15.5 7.56011 13.8179 7.56011 11.7847C7.56011 9.7443 5.85613 8.0695 3.78007 8.0695C1.71145 8.0695 0 9.7516 0 11.7847C0 13.8326 1.71145 15.5 3.78007 15.5ZM3.32616 13.7887C3.2071 13.7887 3.05084 13.7375 2.95411 13.6351L1.69657 12.2748C1.60727 12.1797 1.57007 12.0481 1.57007 11.9456C1.57007 11.6824 1.77842 11.4849 2.03886 11.4849C2.19512 11.4849 2.31417 11.558 2.39603 11.6385L3.31128 12.6112L5.11946 10.1392C5.20875 10.0149 5.34269 9.93445 5.51384 9.93445C5.76684 9.93445 5.98263 10.1319 5.98263 10.3879C5.98263 10.4683 5.94542 10.5707 5.87845 10.6658L3.72054 13.6131C3.63869 13.7229 3.48986 13.7887 3.32616 13.7887Z" fill="#7153FF"/>
</svg>
