<svg width="27" height="27" viewBox="0 0 27 27" fill="none" xmlns="http://www.w3.org/2000/svg">
<path fill-rule="evenodd" clip-rule="evenodd" d="M22.94 4.01251C20.4161 1.49931 17.0593 0.114556 13.4827 0.113281C6.11277 0.113281 0.114755 6.07753 0.11219 13.4087C0.110908 15.7523 0.726994 18.0398 1.89698 20.0557L0 26.9463L7.08786 25.0974C9.0406 26.1571 11.2395 26.7149 13.4769 26.7156H13.4827C20.8513 26.7156 26.8501 20.7506 26.8526 13.4195C26.8539 9.8665 25.4646 6.52636 22.94 4.01315V4.01251ZM13.4827 24.4701H13.4782C11.4844 24.4695 9.5285 23.9365 7.82194 22.9298L7.41611 22.6901L3.20993 23.7873L4.33247 19.7089L4.06834 19.2907C2.95605 17.5311 2.36818 15.4972 2.36946 13.4093C2.37202 7.31628 7.35712 2.35872 13.4872 2.35872C16.4554 2.35999 19.2455 3.51077 21.3437 5.60001C23.442 7.68862 24.5966 10.4658 24.5953 13.4182C24.5927 19.5119 19.6077 24.4695 13.4827 24.4695V24.4701ZM19.5782 16.1935C19.2441 16.0271 17.6017 15.2237 17.2952 15.1128C16.9888 15.0019 16.7664 14.9465 16.5439 15.2792C16.3215 15.6121 15.681 16.3605 15.4861 16.5817C15.2912 16.8036 15.0963 16.831 14.7623 16.6646C14.4283 16.4982 13.3519 16.1476 12.0755 15.0159C11.0825 14.1348 10.4119 13.0472 10.217 12.7144C10.0221 12.3816 10.1965 12.2018 10.3632 12.0367C10.5132 11.8875 10.6972 11.6484 10.8645 11.4546C11.0319 11.2608 11.087 11.1218 11.1985 10.9005C11.3101 10.6787 11.2543 10.4849 11.171 10.3185C11.0876 10.1521 10.4196 8.51674 10.1407 7.85181C9.86952 7.20407 9.59391 7.29206 9.38938 7.28122C9.19448 7.27165 8.97205 7.26974 8.74895 7.26974C8.52585 7.26974 8.16424 7.35262 7.85782 7.68543C7.5514 8.01819 6.68847 8.82214 6.68847 10.4568C6.68847 12.0915 7.88542 13.672 8.05272 13.8939C8.22003 14.1157 10.4087 17.4711 13.7596 18.9107C14.5566 19.253 15.179 19.4577 15.6643 19.6107C16.4644 19.8638 17.1927 19.8282 17.7684 19.7427C18.4101 19.6471 19.7449 18.9388 20.0231 18.1628C20.3013 17.3869 20.3013 16.7213 20.218 16.583C20.1347 16.4446 19.9116 16.3611 19.5776 16.1947L19.5782 16.1935Z" fill="#7153FF"/>
</svg>
