<svg width="61" height="60" viewBox="0 0 61 60" fill="none" xmlns="http://www.w3.org/2000/svg">
<rect width="61" height="60" rx="11.3788" fill="#FE27B7"/>
<rect x="2" y="2" width="56" height="55" rx="9.10305" fill="#2D001D"/>
<path d="M26.1388 42L19.7553 30.2775L10.9344 14.9184H16.2347L22.1152 25.7897L31.439 42H26.1388ZM10.3928 42L19.6779 25.8671L25.5585 14.9184H30.8587L22.0378 30.2002L15.693 42H10.3928ZM39.6103 42.4643C37.8178 42.4643 36.2703 42.058 34.9678 41.2456C33.6653 40.4331 32.6594 39.2532 31.9501 37.7056C31.2537 36.1581 30.9056 34.2882 30.9056 32.0959C30.9056 29.9551 31.2731 28.1175 32.0082 26.5828C32.7432 25.0353 33.7556 23.8489 35.0452 23.0235C36.3348 22.1853 37.8178 21.7662 39.4943 21.7662C40.6033 21.7662 41.577 21.9532 42.4152 22.3272C43.2664 22.6883 43.9305 23.1332 44.4077 23.6619V16.1177L48.8568 14.0673V42H44.4077V40.4912C44.0466 40.9683 43.4405 41.4197 42.5893 41.8452C41.7511 42.2579 40.7581 42.4643 39.6103 42.4643ZM40.2294 38.2086C41.2739 38.2086 42.1251 38.0474 42.7828 37.725C43.4405 37.3897 43.9821 36.9061 44.4077 36.2742V27.9176C44.0982 27.492 43.6081 27.0664 42.9375 26.6409C42.2669 26.2024 41.3384 25.9832 40.152 25.9832C38.6303 25.9832 37.4567 26.5119 36.6314 27.5694C35.806 28.614 35.3934 30.1228 35.3934 32.0959C35.3934 33.3081 35.5803 34.372 35.9543 35.2876C36.3283 36.2033 36.8699 36.919 37.5792 37.4348C38.3014 37.9507 39.1848 38.2086 40.2294 38.2086Z" fill="#FEDBF3"/>
</svg>
